<svg width="105" height="62" viewBox="0 0 105 62" fill="none" xmlns="http://www.w3.org/2000/svg">
<g clip-path="url(#clip0_2420_29948)">
<path d="M34.7496 12.4768C34.3229 12.8757 33.8969 13.2753 33.4716 13.6756C29.6438 17.2781 25.8724 20.9369 22.1573 24.652C18.4422 28.3671 14.7834 32.1385 11.1809 35.9662C10.7806 36.3915 10.381 36.8175 9.98216 37.2442C10.4089 36.8454 10.8349 36.4458 11.2602 36.0455C15.0879 32.443 18.8593 28.7842 22.5744 25.0691C26.2895 21.354 29.9483 17.5826 33.5508 13.7548C33.9511 13.3295 34.3507 12.9035 34.7496 12.4768Z" fill="#00D4FF"/>
<path d="M14.5479 28.5224C16.0588 28.4998 17.2697 29.2256 17.7291 29.4554L17.7105 29.5251C17.3248 29.4994 16.6194 29.5978 15.8861 29.7323C15.1544 29.8664 14.3989 30.0356 13.9146 30.15C13.4488 30.2601 13.0847 30.3505 12.7884 30.4338C13.1446 30.0001 13.5408 29.5488 13.9623 29.1273C14.0101 29.0795 14.0546 29.0302 14.1004 28.9837C14.1057 28.9789 14.1125 28.9757 14.1177 28.9706C14.1267 28.9615 14.1336 28.9504 14.1418 28.9409C14.2851 28.7951 14.42 28.6565 14.5479 28.5224ZM8.19563 7.19806C8.82217 6.53017 9.59191 6.02208 10.415 5.63883C10.9921 5.55025 11.5611 5.4599 12.1289 5.36815C15.0027 4.78485 18.0354 5.56157 19.8166 8.0343C19.9503 8.20068 20.0767 8.36582 20.204 8.54046C20.2296 8.57526 20.2677 8.60074 20.3104 8.60951C20.353 8.61817 20.3978 8.60995 20.434 8.58672C20.4701 8.56338 20.496 8.52554 20.5058 8.48314C20.5153 8.44086 20.5074 8.39635 20.4864 8.35885C20.3772 8.16621 20.2674 7.9815 20.1481 7.79537C19.2623 6.15029 17.6082 5.05259 15.7832 4.57403C16.0251 4.57825 16.2451 4.58829 16.4378 4.6058H16.4392C17.532 4.72723 19.4111 4.99294 21.4856 5.08917C21.5152 5.15983 21.5464 5.22991 21.5789 5.29978C21.6618 5.64653 21.8201 5.95876 22.025 6.23615C21.3914 7.94116 21.0973 10.0929 22.2107 11.7639C22.2577 11.8678 22.3103 11.9692 22.3723 12.0663C22.4196 12.1402 22.4687 12.2143 22.5208 12.288C22.7813 12.8244 22.6186 14.0931 22.2556 14.9935C22.2262 15.0669 22.1943 15.1401 22.161 15.2124C22.1434 15.2501 22.1371 15.2934 22.1465 15.3346C22.1559 15.376 22.1805 15.4118 22.2149 15.4347C22.2492 15.4575 22.2913 15.4661 22.3329 15.4589C22.3747 15.4517 22.4126 15.4289 22.4407 15.3982C22.4983 15.3339 22.5545 15.2676 22.6078 15.1993C23.0511 14.5424 23.4815 13.8358 23.491 12.964C23.5637 13.002 23.6389 13.0379 23.7168 13.0697C24.7522 13.5493 26.1527 12.9047 26.3698 11.7963C26.4255 11.5264 26.3921 11.2139 26.231 10.9808C26.2066 10.9475 26.1724 10.9205 26.1323 10.9083C26.0918 10.8961 26.0488 10.8997 26.0121 10.918C25.9754 10.9363 25.9472 10.9687 25.9327 11.0084C25.9182 11.0481 25.9191 11.0917 25.9313 11.1313C25.9758 11.3044 25.9374 11.4794 25.8574 11.6361C25.501 12.2884 24.6815 12.5217 24.0531 12.2403C23.7915 12.1343 23.5445 11.9553 23.319 11.7328C22.096 10.5417 22.0741 8.54324 22.5187 6.77269C22.75 6.97931 23.0024 7.15768 23.2541 7.30786C23.2783 7.3222 23.3032 7.33718 23.328 7.35136C23.7395 7.58552 24.2686 7.76861 24.8251 7.64276C25.388 7.51775 25.7724 7.06682 25.9368 6.63182C25.9763 6.52994 26.0071 6.43061 26.0307 6.31418C26.0366 6.27351 26.0315 6.23034 26.0121 6.19333C25.9926 6.15632 25.9606 6.12794 25.9223 6.11461C25.8841 6.10137 25.8411 6.10394 25.8029 6.12083C25.7648 6.13781 25.7337 6.16826 25.7131 6.20369C25.6698 6.2666 25.6109 6.34587 25.5543 6.40947C25.0155 7.03615 24.4185 6.96022 23.7755 6.5752C23.7538 6.56254 23.7324 6.54975 23.7112 6.53722C23.1245 6.18229 22.5451 5.80285 22.1568 5.27561C22.1219 5.22119 22.0875 5.16571 22.054 5.10919C23.996 5.16728 26.0558 5.05887 27.7688 4.53329C31.5106 3.38514 33.5206 1.43254 34.6569 0.133898L34.719 0.171187C34.1424 1.69135 32.9609 3.04983 31.7125 4.13899C30.4828 5.21178 29.1847 6.02544 28.3275 6.47852C28.4531 6.62052 28.6314 6.90137 28.817 7.27885C29.0202 7.69201 29.2369 8.22312 29.4144 8.81667C29.7938 10.0862 29.8393 11.5975 29.6595 12.4965C29.5632 12.9787 29.5961 13.5346 29.6505 13.9819C29.6777 14.2051 29.71 14.4011 29.7341 14.546C29.7461 14.6181 29.7562 14.6789 29.7624 14.7235C29.7654 14.7454 29.7676 14.7645 29.7686 14.7794C29.7691 14.7869 29.7695 14.7945 29.7693 14.8008C29.7691 14.8065 29.7683 14.8147 29.7658 14.8222C29.7634 14.8294 29.7593 14.8356 29.7562 14.8402C29.7526 14.8453 29.7484 14.8513 29.7437 14.8568C29.7344 14.8676 29.7219 14.8804 29.7071 14.8948C29.6773 14.9237 29.6359 14.9615 29.5863 15.0045C29.4869 15.0908 29.3518 15.2029 29.2037 15.325C28.907 15.5696 28.5558 15.8553 28.3219 16.0631C28.0833 16.2753 27.8666 16.3716 27.6404 16.3801C27.4157 16.3883 27.1857 16.3094 26.9222 16.184C26.7819 16.1171 26.6195 16.0032 26.4568 15.8719C26.4212 15.7884 26.3796 15.7104 26.3263 15.6405C25.8945 15.075 25.3984 14.5579 24.8375 14.091C24.7975 14.0577 24.7566 14.0243 24.716 13.9915C24.6844 13.9662 24.6457 13.9477 24.6048 13.9439C24.5639 13.9402 24.5236 13.9512 24.4922 13.975C24.4608 13.999 24.4401 14.0352 24.4328 14.0758C24.4256 14.1163 24.4326 14.1581 24.4487 14.1952C24.4697 14.2431 24.4907 14.2915 24.5123 14.3389C24.7288 14.8141 24.9787 15.2641 25.2615 15.6889C25.1851 15.8931 25.0866 16.14 24.9142 16.445C24.5745 17.0459 24.1721 17.6491 23.8245 18.1327C23.752 18.2335 23.6808 18.3284 23.6139 18.4179C23.5069 17.8923 23.2785 17.3842 22.9558 17.0085C22.9179 16.9604 22.8795 16.9145 22.8391 16.8669C22.8123 16.8361 22.7765 16.8114 22.7362 16.8013C22.696 16.7914 22.6538 16.7959 22.6188 16.8151C22.5839 16.8344 22.558 16.8677 22.5449 16.907C22.5319 16.9464 22.5333 16.9894 22.5449 17.0285C22.5622 17.0855 22.5777 17.1404 22.5933 17.1956C22.8283 17.9896 22.8673 18.6428 22.7555 19.4171C22.7301 19.6405 22.7575 19.8877 22.855 20.138C22.877 20.1947 22.9037 20.2506 22.933 20.3072C22.8715 20.8644 22.8027 21.4957 22.7549 21.9313C22.7026 22.4063 22.6892 23.0702 22.6892 23.6155C22.6893 23.8876 22.6929 24.1302 22.6962 24.3047C22.6966 24.3282 22.6964 24.3506 22.6968 24.3716L21.7978 23.1577L21.2315 21.6675C21.2211 21.5093 21.1689 21.3407 21.11 21.1966C21.0385 21.0216 20.9378 20.8231 20.8151 20.6172C20.57 20.2058 20.2212 19.7361 19.8021 19.3169C19.3516 18.8664 19.133 18.4898 19.0384 18.1168C18.9426 17.7388 18.9602 17.3129 19.0757 16.733C19.0798 16.7214 19.0848 16.7104 19.0888 16.6991C19.2295 16.3043 19.4313 16.0296 19.7704 15.9126C20.1139 15.7912 20.5971 15.8373 21.043 15.9782C21.107 15.9987 21.1699 16.0211 21.2295 16.0459C21.2673 16.0625 21.3107 16.0684 21.3517 16.059C21.3924 16.0495 21.4278 16.0257 21.4504 15.992C21.4731 15.958 21.4816 15.9155 21.4746 15.8739C21.4676 15.8326 21.4457 15.7954 21.4159 15.7669C21.3568 15.7127 21.2964 15.6635 21.2329 15.6171C20.7926 15.3049 20.2455 15.0651 19.5984 15.1578C19.4149 15.1811 19.2433 15.2456 19.0867 15.3367C18.9386 14.5045 18.4976 13.6256 17.58 12.9281C16.9422 12.4434 16.107 11.7613 14.9656 11.3136C13.81 10.8606 12.359 10.6529 10.4654 11.0478C8.51635 11.4544 6.97772 12.7641 5.94587 13.9266C5.64282 14.2681 5.38018 14.6019 5.15935 14.9023C5.24904 14.2006 5.35366 13.4857 5.50048 12.7714C5.89959 10.8297 6.61212 8.88628 8.19563 7.19806ZM20.9498 23.4491C20.3496 24.3584 19.5971 25.7759 19.1295 27.6462L19.0577 27.642C18.8749 26.3618 18.9218 25.5078 19.0771 24.8302C19.1394 24.5579 19.2211 24.3148 19.3098 24.0837C19.4904 23.8837 19.6611 23.6901 19.8111 23.5078C20.0789 23.1822 20.3094 22.8689 20.4312 22.6253C20.4749 22.5379 20.5152 22.4635 20.552 22.4009L20.9498 23.4491ZM3.66987 21.6882C4.50222 21.2118 5.81135 20.6866 7.24753 20.5233C8.95348 20.3293 10.7814 20.646 12.218 22.0825C13.3221 23.1867 13.6844 24.7156 13.7254 26.0455C13.7457 26.7053 13.686 27.2994 13.608 27.7387C13.569 27.9586 13.5266 28.1346 13.4893 28.2566C13.4732 28.3089 13.4582 28.3463 13.4478 28.3712C13.4082 28.4114 13.3697 28.4534 13.3291 28.4941C13.2141 28.609 13.101 28.7263 12.99 28.8442C13.0174 28.7278 13.0413 28.6102 13.0598 28.4914C13.2959 27.0793 12.9413 25.4488 11.8347 24.4172C10.6703 23.2938 8.98345 22.9138 7.48853 23.1632C7.28216 23.198 7.07584 23.2452 6.87533 23.3124C6.83478 23.3263 6.79913 23.354 6.77797 23.3918C6.75684 23.4298 6.75088 23.4753 6.76208 23.5168C6.7734 23.5582 6.80198 23.5941 6.83942 23.6162C6.87688 23.638 6.92163 23.6441 6.96372 23.6355C7.14725 23.5987 7.34135 23.5784 7.53341 23.5685C8.94392 23.5015 10.3669 23.9833 11.2802 24.9717C12.1151 25.8462 12.3714 27.1375 12.1745 28.3533C12.0611 29.0769 11.8569 29.7946 11.5786 30.5153C11.26 30.9306 10.9925 31.3063 10.7907 31.5974C9.9737 32.3155 9.44581 32.7487 9.05397 32.9847L8.14522 33.9445C7.55087 34.7996 7.04492 36.3428 6.68682 37.6775C6.50783 38.3447 6.36658 38.9585 6.26973 39.4053C6.22133 39.6286 6.18436 39.8112 6.15925 39.937C6.14678 39.9994 6.1373 40.0482 6.13094 40.0813C6.12776 40.0978 6.12494 40.1108 6.12334 40.1193C6.12257 40.1234 6.12235 40.1268 6.12196 40.1289L6.12127 40.131L6.04807 40.1296V40.1269C6.04781 40.125 6.04716 40.122 6.04669 40.1186C6.04566 40.1108 6.04383 40.0985 6.04186 40.0834C6.03789 40.0528 6.0319 40.007 6.02459 39.9487C6.00994 39.8318 5.98958 39.6617 5.96521 39.4501C5.9164 39.0264 5.85296 38.4344 5.79465 37.7632C5.67854 36.4265 5.58176 34.7716 5.66137 33.4964C5.06447 32.8989 4.51197 32.3065 4.01721 31.7072C4.02071 31.6687 4.01285 31.6299 3.9965 31.5953C3.93245 31.4626 3.87123 31.334 3.81212 31.2107C3.56684 30.7055 3.32569 30.2342 3.09673 29.7647C2.19223 28.1379 2.68814 26.1874 4.19606 24.9406C4.29683 24.85 4.40427 24.7592 4.50956 24.6741C4.54271 24.6473 4.5667 24.6088 4.57447 24.5664C4.58202 24.5242 4.57363 24.4807 4.5503 24.4455C4.52677 24.4102 4.48952 24.385 4.44741 24.3758C4.40524 24.3666 4.36059 24.3748 4.32312 24.3951C4.19901 24.4629 4.07148 24.5377 3.95023 24.6147C2.80363 25.2104 1.98592 26.5233 1.83374 27.8871C1.8079 27.803 1.78169 27.7188 1.75848 27.6337C1.46221 26.5469 1.79954 25.2427 2.32886 24.0526C2.72653 23.1585 3.23443 22.3245 3.66987 21.6882ZM20.9843 19.9854C20.9584 20.0632 22.044 21.9891 22.0553 22.0093C22.0566 21.9914 22.2091 19.8039 22.0795 19.7243C21.9488 19.6463 21.0108 19.9071 20.9843 19.9854ZM6.61638 14.5212C7.5949 13.4188 8.97347 12.2741 10.6477 11.9248C12.3767 11.5641 13.6507 11.7597 14.639 12.1471C15.6414 12.5403 16.3724 13.1356 17.0379 13.6414C18.18 14.5096 18.3675 15.7105 18.1994 16.5513C18.072 17.1883 18.0255 17.7694 18.1697 18.3378C18.3156 18.9127 18.643 19.4242 19.1689 19.9502C19.5305 20.3118 19.834 20.722 20.0452 21.0764C20.1149 21.1935 20.1708 21.303 20.2171 21.3989C20.0207 21.5587 19.8284 21.8285 19.6302 22.2248C19.5568 22.3715 19.3833 22.6192 19.1199 22.9395C18.8633 23.2514 18.5416 23.6089 18.1946 23.9697C17.4954 24.6967 16.7172 25.4124 16.181 25.7955C15.5411 26.2526 15.0536 26.7128 14.5796 27.198C14.6132 26.8406 14.6334 26.4414 14.6204 26.0179C14.5758 24.5735 14.1826 22.7795 12.8519 21.4486C11.1638 19.7605 9.02839 19.4191 7.14602 19.6332C6.06978 19.7556 5.05786 20.0604 4.22644 20.4135L4.68703 18.3398C4.78344 17.844 4.85709 17.3262 4.92595 16.793C5.00523 16.7528 5.07442 16.6895 5.1193 16.6052V16.6038C5.1201 16.6024 5.12181 16.5999 5.12345 16.5969C5.12705 16.5903 5.13306 16.5796 5.14071 16.5658C5.15627 16.5379 5.18 16.4951 5.21184 16.4409C5.27586 16.3317 5.37283 16.1734 5.49979 15.9803C5.75463 15.5927 6.13141 15.0676 6.61638 14.5212ZM6.67577 33.4832C6.52502 33.6078 6.67467 35.4228 6.67577 35.4361C6.67901 35.4276 7.47871 33.3334 7.40773 33.2388C7.33552 33.1449 6.82727 33.3602 6.67577 33.4832ZM27.1819 12.0007C27.377 13.3672 26.45 14.0343 25.9617 14.1973C26.2058 14.4414 26.8398 14.783 27.4256 14.1973C28.0115 13.6115 27.5074 12.489 27.1819 12.0007ZM18.1497 20.0565C17.9544 21.0329 15.9525 22.9039 14.976 23.7177L15.2204 25.915C16.3598 24.9384 18.7355 22.7904 19.1261 22.0093C19.5165 21.2283 18.6379 20.382 18.1497 20.0565ZM6.43201 24.9393C4.72324 25.6716 3.25838 28.1129 3.74652 29.5776C4.23497 31.0418 6.43105 32.2618 7.40773 32.2624C8.38418 32.2624 11.3139 30.7977 11.3141 27.8685C11.314 24.9391 8.14083 24.2069 6.43201 24.9393ZM23.4606 14.9017C23.3791 15.4712 22.966 16.3349 24.0082 16.6383C24.0176 16.6256 24.5206 15.9466 24.3735 15.606C24.2241 15.2624 23.4606 14.9017 23.4606 14.9017ZM25.229 8.09506C25.4733 8.1766 26.2058 8.58299 27.1819 9.559C28.1583 10.5354 28.4373 11.6794 28.5187 12.0864C28.9093 8.96196 27.8329 7.44433 27.1819 7.11865L25.229 8.09506ZM19.6806 17.1169C19.3702 17.4842 19.2645 18.291 20.0452 18.6816C21.0216 19.1698 21.3559 19.5798 21.844 18.6036C22.0881 18.1967 21.8704 17.3783 21.3489 17.0133C20.8276 16.6486 19.9913 16.7499 19.6806 17.1169ZM17.4177 15.9064C17.723 13.6477 8.9399 9.50526 6.25454 16.8828L5.69935 18.8356C6.54074 18.9944 9.63434 18.2909 11.803 19.5683C13.9564 20.837 14.7171 22.7742 14.7274 22.8007C14.7554 22.7765 16.6332 21.154 16.9426 20.3244C17.254 19.4886 17.2826 17.2739 17.4177 15.9064ZM8.87305 21.0329C5.35793 20.2518 3.82763 22.6602 3.50207 23.9622C3.82755 23.4739 5.11356 22.4491 7.65218 22.2538C10.1908 22.0585 12.1462 23.8644 12.7974 24.6782C12.9601 23.8645 12.3882 21.8141 8.87305 21.0329ZM22.8356 8.38371C22.9983 9.35992 23.4347 10.964 23.7996 11.3295C24.1645 11.6944 24.9632 11.5742 25.2076 11.3302C25.4517 11.0861 25.415 10.2338 24.6338 9.45265C23.8531 8.67209 23.0802 8.46516 22.8356 8.38371ZM20.3062 10.1301C20.5909 12.1228 20.5907 14.1674 20.5907 14.1973C20.5907 14.5878 21.0792 14.8486 21.3234 14.93C21.8116 14.2789 22.1311 12.4242 20.3062 10.1301ZM1.82546 29.0707C1.85694 29.1258 1.88611 29.1856 1.91661 29.2475C1.97788 29.4929 2.06626 29.7322 2.18315 29.9615C2.31521 30.4524 2.37537 31.0277 2.26947 31.6222C2.08815 32.6397 1.42893 33.707 -0.142565 34.4928L-0.188831 34.4382C0.216818 33.8703 0.800968 32.9198 1.23505 31.9178C1.45192 31.4171 1.63102 30.9042 1.73154 30.42C1.8321 29.9354 1.85341 29.4814 1.75778 29.0983L1.82546 29.0707ZM26.5231 3.99882C27.6601 3.51151 30.3228 2.04948 31.8796 0.103514L31.9424 0.141494C31.6153 0.877416 30.9528 1.95588 30.0289 2.80212C29.1049 3.64843 27.914 4.26586 26.5321 4.06856L26.4023 4.05061L26.5231 3.99882ZM14.976 6.62975C11.2655 4.87229 8.10496 9.13962 7.53134 10.3911C7.28556 10.9273 7.08876 11.5122 7.08871 12.1899C7.98393 11.2948 10.1947 9.68805 13.3187 10.0783C16.4432 10.4688 18.7187 12.8142 19.3699 13.4653C19.4512 11.9192 18.6865 8.38738 14.976 6.62975Z" fill="#00D4FF"/>
<path d="M22.1203 20.7376C22.1164 20.853 22.1103 20.9701 22.1051 21.0842L21.6742 21.3231C21.6279 21.2393 21.5787 21.1528 21.5306 21.0649L22.1203 20.7376ZM21.1535 20.3619C21.3172 20.3054 21.5145 20.2363 21.6935 20.1672C21.816 20.1199 21.9288 20.0739 22.016 20.0339C22.0595 20.014 22.0952 19.9956 22.1217 19.9807L22.1224 19.9801C22.1268 20.0717 22.1293 20.1827 22.1286 20.3053C22.0351 20.3478 21.9198 20.3962 21.7992 20.4427C21.6327 20.507 21.4515 20.5706 21.2951 20.625C21.2447 20.5306 21.1951 20.4424 21.1535 20.3619ZM26.2676 14.0532C26.3594 13.9984 26.4541 13.9305 26.5473 13.8495L27.4167 14.2051C27.3255 14.2949 27.233 14.3613 27.1412 14.4102L26.2676 14.0532ZM7.09082 34.3072C7.0555 34.4067 7.01828 34.506 6.9831 34.6028H6.62402C6.61957 34.5049 6.61559 34.4051 6.61297 34.3072H7.09082ZM27.6308 13.3171C27.6503 13.3282 27.669 13.3401 27.6881 13.3509C27.697 13.4651 27.6959 13.5774 27.6784 13.6851C27.6178 13.6504 27.5526 13.6126 27.4844 13.574C27.3252 13.4837 27.1505 13.3866 26.9872 13.295C27.0315 13.2102 27.0692 13.1189 27.1018 13.0215C27.2742 13.1179 27.4613 13.221 27.6308 13.3171ZM17.3252 21.4184C17.5607 21.7882 17.7129 22.2667 17.8065 22.7146C17.8592 22.9666 17.8942 23.2131 17.917 23.4313C17.8285 23.5203 17.7365 23.6097 17.6436 23.7006C17.626 23.4444 17.5883 23.1148 17.5172 22.7746C17.4331 22.3723 17.3061 21.9667 17.1243 21.6511C17.1932 21.5732 17.2606 21.4957 17.3252 21.4184ZM16.7438 22.0634C17.0041 22.3729 17.1416 22.8622 17.2113 23.3278C17.2486 23.5771 17.2673 23.8284 17.2755 24.0563C17.1793 24.1478 17.0828 24.2401 16.9855 24.3311C16.9866 24.0547 16.9706 23.7109 16.9199 23.372C16.8531 22.9258 16.7289 22.5197 16.5359 22.2754C16.6054 22.2049 16.6756 22.1349 16.7438 22.0634ZM17.8369 20.7314C18.042 21.026 18.2255 21.4411 18.3741 21.8459C18.4787 22.1307 18.5678 22.418 18.6386 22.6669C18.5664 22.7497 18.4873 22.8351 18.4045 22.9245C18.3306 22.6476 18.225 22.2955 18.0972 21.9474C17.9659 21.5896 17.8143 21.2476 17.6567 20.9944C17.722 20.9048 17.7822 20.8169 17.8369 20.7314ZM16.2922 22.5219C16.58 23.0739 16.618 23.7237 16.5884 24.2503C16.5784 24.4289 16.5587 24.5956 16.5394 24.7427C16.423 24.849 16.3088 24.9542 16.1962 25.0555C16.2009 25.0258 16.2063 24.9943 16.2114 24.9616C16.2413 24.7699 16.2777 24.5156 16.2936 24.233C16.3207 23.7501 16.2838 23.2013 16.0678 22.7367C16.1419 22.666 16.2176 22.5951 16.2922 22.5219ZM15.7032 23.0778L15.7501 23.0598C15.9628 23.6004 15.946 24.3103 15.8896 24.8704C15.8704 25.0611 15.8444 25.2375 15.8219 25.3883C15.7017 25.4947 15.5869 25.596 15.4787 25.6901C15.4853 25.6468 15.493 25.5971 15.5015 25.543C15.5301 25.3606 15.5685 25.115 15.5961 24.8407C15.6487 24.3192 15.6564 23.7182 15.505 23.258C15.5698 23.2001 15.6356 23.1396 15.7032 23.0778ZM7.34839 33.5332C7.32346 33.6176 7.2932 33.716 7.25793 33.8225L6.61642 33.7818C6.62464 33.6317 6.64109 33.5235 6.67167 33.489L7.34839 33.5332ZM4.46679 26.6644C5.55685 26.2831 6.95377 26.1648 8.06862 26.6755C8.70901 26.9688 9.25276 27.4689 9.58503 28.2361C9.88894 28.938 10.0088 29.8545 9.8785 31.0279C9.77209 31.1265 9.66285 31.2187 9.55257 31.3055H9.54981C9.73625 30.0133 9.61714 29.0529 9.31434 28.3535C9.01275 27.6571 8.52399 27.2083 7.9457 26.9434C6.80038 26.4188 5.29287 26.6111 4.21198 27.0808C4.2908 26.9399 4.37471 26.8 4.46679 26.6644ZM5.46806 25.5471C5.62038 25.4192 5.77779 25.3022 5.9397 25.1998C8.10437 25.018 9.4428 25.6855 10.2037 26.6741C10.8287 27.4862 11.0467 28.4939 11.0331 29.3692C10.9343 29.6213 10.8128 29.8565 10.6747 30.0757L10.6712 30.075C10.8442 29.1344 10.7212 27.831 9.96966 26.8543C9.23179 25.8957 7.86141 25.2181 5.46806 25.5471ZM20.5942 16.7863C20.7386 16.7888 20.8847 16.8106 21.023 16.8547C21.2417 17.1718 21.4129 17.5502 21.5402 17.916C21.6406 18.2045 21.715 18.4907 21.7695 18.7405C21.6886 18.8836 21.6109 18.9874 21.5326 19.0603C21.482 18.7745 21.3946 18.3958 21.2613 18.0127C21.1001 17.5499 20.8776 17.0968 20.5942 16.7863ZM23.3163 15.705C23.4431 15.7271 23.5835 15.758 23.7209 15.8002C23.9298 15.8644 24.1567 15.9626 24.31 16.1103C24.2772 16.1883 24.2387 16.2642 24.2002 16.3333L24.1505 16.3706C24.0662 16.2557 23.8749 16.1565 23.6346 16.0827C23.5329 16.0514 23.4286 16.027 23.3308 16.0081C23.3115 15.9106 23.3088 15.8087 23.3163 15.705ZM3.81976 27.9661C4.85879 27.5464 6.15277 27.3848 7.15366 27.8528C7.71673 28.1161 8.17967 28.5762 8.44496 29.285C8.69013 29.9402 8.76092 30.7998 8.60033 31.9042C8.49088 31.958 8.384 32.0055 8.28061 32.0471C8.47357 30.882 8.40467 30.0166 8.16943 29.3879C7.93148 28.7523 7.52251 28.351 7.02867 28.1201C6.06422 27.6691 4.74979 27.8613 3.72032 28.3307C3.74632 28.2101 3.78041 28.0885 3.81976 27.9661ZM23.4116 15.1401C23.6278 15.2003 23.9024 15.279 24.1505 15.3597C24.1638 15.364 24.1766 15.3698 24.1898 15.3742C24.2714 15.4498 24.3388 15.5272 24.3728 15.6055C24.393 15.6519 24.4009 15.7044 24.3997 15.7609C24.3019 15.7234 24.1852 15.681 24.0593 15.64C23.8245 15.5637 23.5644 15.4886 23.355 15.4301C23.3738 15.3317 23.3912 15.2334 23.4116 15.1401ZM19.6806 17.1171C19.7335 17.0546 19.8018 17.0002 19.8809 16.9541C20.2732 17.3265 20.5117 17.9091 20.6591 18.3953C20.7372 18.6527 20.7928 18.8907 20.8331 19.0665C20.8352 19.0754 20.8367 19.0842 20.8387 19.0927C20.7354 19.0455 20.6206 18.988 20.4941 18.9194C20.4617 18.7864 20.4241 18.6366 20.3767 18.4802C20.2278 17.9893 20.0016 17.4594 19.6578 17.1468C19.6655 17.1369 19.6727 17.1264 19.6806 17.1171ZM3.69754 29.3948C4.4642 29.0396 5.09578 28.9224 5.6117 28.9901C6.17031 29.0635 6.57678 29.3502 6.85397 29.7463C7.33257 30.4305 7.42626 31.4362 7.31524 32.2557C7.22518 32.2493 7.12666 32.2369 7.02177 32.2135C7.12649 31.4398 7.03329 30.5164 6.61228 29.9148C6.37786 29.5799 6.04225 29.3438 5.57372 29.2822C5.12363 29.2231 4.53652 29.3243 3.78316 29.6793C3.76993 29.6454 3.75727 29.6113 3.74587 29.5771C3.72617 29.518 3.71099 29.4569 3.69754 29.3948ZM27.628 10.0771C27.7688 10.0665 27.9322 10.0653 28.1038 10.0833C28.2552 10.0993 28.4162 10.1296 28.5747 10.1828C28.5827 10.2879 28.5908 10.3957 28.5947 10.5066C28.4274 10.4355 28.2475 10.3952 28.0727 10.3768C27.987 10.3678 27.9038 10.3657 27.8255 10.3657C27.7646 10.2702 27.6996 10.1733 27.628 10.0771ZM4.31902 30.5342C4.71601 30.3031 5.05521 30.2304 5.34101 30.2994C5.64668 30.3733 5.85119 30.5988 5.98113 30.8636C6.11054 31.1275 6.17422 31.4461 6.19382 31.7461C6.19767 31.8052 6.19803 31.864 6.19865 31.9221C6.09983 31.8761 6.0002 31.825 5.89965 31.7709C5.89953 31.7691 5.89977 31.7672 5.89965 31.7654C5.88157 31.4886 5.82357 31.2106 5.71666 30.9927C5.6101 30.7757 5.4631 30.6323 5.27126 30.586C5.09683 30.5439 4.85416 30.574 4.52341 30.7551C4.45222 30.6831 4.38382 30.6096 4.31902 30.5342ZM27.126 9.50603C27.4204 9.38337 27.8681 9.26805 28.4456 9.26503C28.4663 9.36026 28.4852 9.4587 28.5022 9.56058C28.0022 9.55658 27.613 9.64129 27.3483 9.73529C27.2951 9.67626 27.2399 9.61724 27.1819 9.5592C27.1636 9.54087 27.1441 9.52396 27.126 9.50603ZM5.70077 18.8303C6.70414 18.3146 8.23438 17.9019 9.91372 18.1639C11.7523 18.451 13.7505 19.5458 15.4242 22.1608C15.348 22.2336 15.2749 22.3023 15.2067 22.3658C13.5681 19.7813 11.6264 18.7299 9.86815 18.4554C8.53439 18.2472 7.29791 18.4838 6.3699 18.8503C6.08368 18.8617 5.85372 18.865 5.69939 18.8358L5.70077 18.8303ZM5.91139 18.0866C8.11859 17.1311 12.7912 16.6041 16.3633 21.183C16.2995 21.2575 16.2339 21.3333 16.1658 21.4081C12.5667 16.7518 7.81854 17.4812 5.80504 18.4595L5.91139 18.0866ZM6.08126 17.4872C8.14926 16.5064 12.6647 15.9674 17.0898 19.7259C17.0694 19.8443 17.0457 19.954 17.0214 20.0539C12.4659 16.0997 7.81928 16.8664 5.97146 17.8746L6.08126 17.4872ZM26.4513 8.89215C26.5717 8.81846 26.7258 8.74196 26.914 8.66979C27.2269 8.54989 27.6415 8.4407 28.1673 8.37632C28.205 8.46574 28.2415 8.55962 28.2757 8.65875C27.7364 8.71917 27.3219 8.82948 27.0196 8.94532C26.8867 8.99628 26.7777 9.04961 26.6889 9.09793C26.6069 9.02515 26.5282 8.95604 26.4513 8.89215ZM11.7747 23.6751C11.9492 23.6405 12.1488 23.6314 12.334 23.635C12.4515 23.6374 12.5679 23.6448 12.6752 23.6544C12.7143 23.7601 12.743 23.863 12.7656 23.9617C12.6356 23.9468 12.4825 23.933 12.3278 23.9299C12.243 23.9282 12.1602 23.9296 12.082 23.934C11.9863 23.8484 11.8832 23.7623 11.7747 23.6751ZM23.6001 11.028C23.859 11.0377 24.235 11.0327 24.5814 10.9872C24.767 10.9628 24.9395 10.9278 25.0785 10.8795C25.2013 10.8368 25.2823 10.7875 25.3292 10.7407C25.3459 10.8766 25.3409 10.9973 25.3188 11.0977C25.2724 11.12 25.2244 11.1414 25.1752 11.1585C25.0101 11.2158 24.8162 11.2542 24.62 11.28C24.3391 11.3169 24.0424 11.3279 23.7969 11.327C23.7329 11.2619 23.6666 11.1589 23.6001 11.028ZM20.5873 13.9538C20.7424 13.9912 20.9463 14.0281 21.1625 14.0594C21.3275 14.0833 21.4954 14.1033 21.6459 14.1202C21.6263 14.2231 21.6035 14.3195 21.5755 14.4088C21.4321 14.3926 21.2751 14.3739 21.1204 14.3515C20.9386 14.3252 20.7539 14.2931 20.5949 14.2583C20.5923 14.2384 20.5908 14.2182 20.5908 14.1975C20.5908 14.1975 20.5897 14.1101 20.5873 13.9538ZM25.7235 8.35491C26.1224 8.09346 26.8956 7.72085 27.7744 7.66852C27.8377 7.75508 27.9007 7.85059 27.9615 7.95647C27.1506 7.96123 26.4095 8.28524 25.9907 8.53652C25.8943 8.46764 25.8054 8.40683 25.7235 8.35491ZM10.8308 23.0308C11.0878 22.9694 11.3766 22.936 11.6504 22.9224C11.8683 22.9116 12.0817 22.9113 12.2691 22.9169C12.3461 23.02 12.4133 23.123 12.4722 23.2249C12.2522 23.2114 11.9628 23.2011 11.6649 23.2159C11.5088 23.2237 11.3534 23.2387 11.2057 23.2594C11.086 23.1805 10.9603 23.1051 10.8308 23.0308ZM6.24008 16.9279C8.37708 15.7984 12.9663 14.7068 17.2638 18.0341C17.2555 18.1534 17.248 18.272 17.2389 18.3891C12.8336 14.8604 8.08098 16.1831 6.12614 17.3291L6.24008 16.9279ZM23.366 10.4624C23.615 10.4085 23.9354 10.3266 24.2561 10.2187C24.5239 10.1285 24.783 10.0187 25.0019 9.90102C25.0594 9.98848 25.1079 10.0756 25.1497 10.1607C24.9054 10.2929 24.6241 10.4063 24.3507 10.4983C24.0376 10.6037 23.725 10.6846 23.473 10.7407C23.4375 10.6534 23.4007 10.5605 23.366 10.4624ZM20.6253 13.3647C20.739 13.3692 20.8817 13.3655 21.0355 13.3564C21.2557 13.3434 21.4932 13.3184 21.6908 13.295C21.6975 13.3971 21.7006 13.4954 21.6991 13.5905C21.5026 13.6134 21.2707 13.6378 21.0534 13.6506C20.8952 13.66 20.7412 13.6646 20.6135 13.6596C20.6021 13.6591 20.5909 13.6567 20.5797 13.6561C20.5775 13.5665 20.573 13.4674 20.5694 13.3599C20.5868 13.3611 20.6054 13.364 20.6253 13.3647ZM20.5928 12.7923C20.687 12.782 20.8206 12.7573 20.9733 12.7239C21.1663 12.6817 21.383 12.6258 21.5775 12.5741C21.6018 12.6729 21.6238 12.769 21.6404 12.8634C21.4459 12.9149 21.2299 12.9695 21.0362 13.0119C20.8811 13.0458 20.7355 13.0737 20.6253 13.0858C20.6038 13.0881 20.5821 13.0866 20.5611 13.0878C20.5585 13.026 20.5565 12.9622 20.5535 12.8966L20.5811 12.891C20.5756 12.8642 20.5628 12.845 20.55 12.831C20.5494 12.8188 20.5486 12.8066 20.5479 12.7944C20.5606 12.7936 20.5756 12.7942 20.5928 12.7923ZM9.78943 22.5488C10.4037 22.314 11.0704 22.2101 11.5282 22.1746C11.6474 22.266 11.7569 22.359 11.8569 22.4535C11.5211 22.4569 10.8595 22.5189 10.2113 22.7153C10.0746 22.6551 9.93383 22.5998 9.78943 22.5488ZM6.59225 16.0813C7.71124 15.5201 9.33621 14.9596 11.138 14.8155C13.1434 14.6553 15.3756 15.0109 17.3694 16.4632C17.3609 16.5784 17.3533 16.6968 17.3452 16.8174C15.3832 15.3213 13.1657 14.9488 11.1608 15.109C9.21173 15.2649 7.47488 15.9238 6.39338 16.5219C6.45626 16.3694 6.52397 16.2232 6.59225 16.0813ZM23.1644 9.82161C23.362 9.72748 23.5963 9.61124 23.8169 9.48255C23.9812 9.38672 24.1369 9.28636 24.2651 9.18908C24.2788 9.17864 24.2909 9.16613 24.3038 9.15593C24.378 9.2166 24.4535 9.28141 24.5289 9.35204C24.5007 9.37543 24.4738 9.40185 24.4439 9.42455C24.303 9.53152 24.1357 9.63801 23.9654 9.73736C23.7206 9.88016 23.4608 10.008 23.2479 10.1082C23.2189 10.0146 23.1919 9.91847 23.1644 9.82161ZM20.541 12.0431C20.6302 12.043 20.8254 12.0153 21.0465 11.9768C21.1541 11.958 21.2639 11.9351 21.3648 11.9153C21.4026 12.0105 21.4377 12.1036 21.4684 12.1957C21.3533 12.2184 21.2235 12.2454 21.0969 12.2675C20.8819 12.3049 20.6597 12.3379 20.5403 12.3379V12.1901L20.541 12.0431ZM8.70736 22.2857C9.143 22.0545 9.66555 21.8817 10.1133 21.7596C10.3023 21.708 10.4804 21.6651 10.6353 21.6297C10.7777 21.6991 10.9115 21.771 11.0372 21.8452C11.0023 21.8523 10.9638 21.86 10.9226 21.8687C10.7306 21.909 10.4732 21.967 10.1906 22.0441C9.87058 22.1313 9.52396 22.2422 9.20454 22.3769C9.04254 22.3389 8.87673 22.3086 8.70736 22.2857ZM21.0983 11.3311C21.1471 11.4236 21.1923 11.515 21.2343 11.6053L20.4803 11.7489C20.4725 11.6517 20.4644 11.5531 20.4554 11.4533L21.0983 11.3311ZM7.23928 14.9868C8.30207 14.4142 9.75819 13.8631 11.3611 13.6658C13.1758 13.4425 15.1849 13.6739 17.0221 14.8466C17.1812 15.0463 17.2972 15.246 17.3625 15.4398C15.4656 14.0122 13.3273 13.7211 11.397 13.9586C9.56495 14.1842 7.92882 14.8856 6.88366 15.533C6.99709 15.3397 7.11542 15.1576 7.23928 14.9868ZM23.0981 9.14074C23.2414 9.05149 23.4146 8.90997 23.6056 8.69534C23.6886 8.73862 23.7749 8.78816 23.8646 8.84381C23.6418 9.10242 23.4346 9.27866 23.2535 9.3914C23.1911 9.43016 23.1306 9.46086 23.0739 9.4867C23.0487 9.38859 23.0236 9.29079 23.0007 9.19391C23.0307 9.17843 23.0638 9.16204 23.0981 9.14074ZM18.1787 12.3642C18.6073 12.22 18.9847 12.2094 19.2863 12.2606C19.304 12.3668 19.3179 12.4703 19.3298 12.5706C19.1022 12.518 18.8016 12.5021 18.4467 12.592C18.3618 12.5179 18.2723 12.4419 18.1787 12.3642ZM7.50928 22.2685C8.34189 21.697 9.00278 21.3948 9.47869 21.2341C9.50375 21.2256 9.52925 21.2197 9.55326 21.212C9.731 21.2656 9.90006 21.3215 10.0601 21.3818C9.93587 21.4071 9.77286 21.4464 9.57329 21.5137C9.20413 21.6384 8.7059 21.8552 8.08795 22.2395C7.9448 22.2379 7.79943 22.2427 7.65222 22.254C7.60405 22.2577 7.55656 22.2642 7.50928 22.2685ZM17.0345 11.5182C17.717 11.2323 18.3055 11.2282 18.7629 11.3256C18.8843 11.3514 18.9959 11.3848 19.0971 11.4209C19.1318 11.5412 19.1601 11.6603 19.1876 11.7765C19.0548 11.7157 18.8918 11.6555 18.7015 11.6149C18.3409 11.5382 17.8781 11.5298 17.3335 11.7192C17.2367 11.6516 17.1367 11.585 17.0345 11.5182ZM6.60261 22.3935C7.22426 21.7039 7.91425 21.2339 8.44081 20.953C8.5813 20.9749 8.72567 21.0004 8.87309 21.0331C8.88955 21.0368 8.90578 21.0411 8.92212 21.0449C8.47965 21.2363 7.76581 21.6485 7.08875 22.3147C6.92035 22.3373 6.75845 22.3639 6.60261 22.3935ZM16.2535 11.0535C17.154 10.4557 18.0754 10.324 18.7035 10.3561C18.7504 10.4586 18.7935 10.5611 18.8347 10.6627C18.3 10.6077 17.4229 10.6805 16.5456 11.2158C16.4503 11.1604 16.3526 11.1069 16.2535 11.0535ZM5.72563 22.6089C6.28487 21.8813 6.9098 21.2781 7.37325 20.884C7.52129 20.8785 7.67401 20.8814 7.83176 20.8895C7.43829 21.1969 6.80537 21.7611 6.20832 22.477C6.03915 22.5176 5.8783 22.5616 5.72563 22.6089ZM6.4721 21.0076C6.64187 20.9661 6.81964 20.9344 7.00588 20.913C6.59481 21.2827 5.90195 21.9756 5.30993 22.7512C5.11587 22.8252 4.938 22.9039 4.77546 22.9846C5.3012 22.217 5.97262 21.4927 6.4721 21.0076ZM15.4021 10.644C16.4552 9.78839 17.4928 9.47978 18.1877 9.41074C18.2478 9.50424 18.3043 9.59852 18.359 9.69248C17.7606 9.72378 16.758 9.9693 15.7101 10.7794C15.609 10.7328 15.5064 10.6875 15.4021 10.644ZM5.44251 21.4157C5.68045 21.2795 5.94227 21.1642 6.22903 21.0752C5.91449 21.3585 5.44451 21.8131 5.00748 22.3051C4.71157 22.6382 4.43628 22.9818 4.2327 23.2967C4.02197 23.4368 3.85437 23.5748 3.72723 23.7L3.69201 23.6855C3.87967 23.2108 4.3238 22.6314 4.7872 22.1097C5.0054 21.864 5.23115 21.627 5.44251 21.4157ZM14.3545 10.2843C15.5895 9.04843 16.7463 8.61844 17.5331 8.54066C17.6141 8.63334 17.6912 8.72735 17.7658 8.82171C17.1008 8.83212 15.9551 9.14896 14.6784 10.3789C14.5718 10.3452 14.4638 10.3138 14.3545 10.2843ZM13.0929 10.0543C14.5016 8.51106 15.8977 7.94567 16.8018 7.81353C16.9022 7.90044 16.9986 7.98899 17.0918 8.0787C16.3337 8.12215 14.9259 8.55749 13.4562 10.0985C13.4106 10.0919 13.3646 10.0842 13.3187 10.0785C13.243 10.069 13.1676 10.0615 13.0929 10.0543ZM11.8141 10.0391C13.3052 8.31376 14.8387 7.45095 15.8275 7.09745C15.9347 7.16436 16.039 7.23255 16.1403 7.30254C15.2705 7.56843 13.743 8.33626 12.2215 10.0198C12.0835 10.0224 11.9477 10.0292 11.8141 10.0391ZM10.221 10.3354C11.3055 8.92239 12.3377 7.9482 13.2048 7.30185C13.7266 6.91296 14.1915 6.64177 14.5721 6.46354C14.6978 6.50917 14.8247 6.56021 14.9519 6.6196C14.5642 6.77163 14.0232 7.05874 13.3802 7.53801C12.5994 8.11999 11.6738 8.98108 10.6926 10.2104C10.5312 10.2479 10.3738 10.289 10.221 10.3354ZM8.91866 10.8685C10.2377 8.61145 12.1707 7.01839 13.4127 6.22116C13.5688 6.23048 13.7264 6.24829 13.8857 6.27709C12.7794 6.92792 10.8146 8.43148 9.4117 10.6337C9.23999 10.708 9.07566 10.7869 8.91866 10.8685ZM7.63289 11.7054C7.77812 10.6889 8.85817 8.45515 12.1179 6.35167C12.2666 6.31309 12.4172 6.28134 12.5702 6.25845L12.64 6.37239C9.47805 8.30578 8.29136 10.364 7.99128 11.434C7.86296 11.5251 7.7437 11.6165 7.63289 11.7054Z" fill="#00D4FF"/>
<path d="M91.1354 29.5903V10.4049H97.3115C98.6782 10.4049 99.8608 10.6414 100.86 11.1145C101.858 11.5876 102.629 12.2621 103.172 13.1382C103.733 14.0142 104.013 15.048 104.013 16.2394C104.013 17.4834 103.707 18.5959 103.093 19.5771C102.498 20.5583 101.683 21.2679 100.649 21.7059L104.276 29.5903H99.9922L96.891 22.3367H95.0513V29.5903H91.1354ZM95.0513 18.9201H97.3115C98.1876 18.9201 98.8621 18.7011 99.3352 18.263C99.8258 17.825 100.071 17.2118 100.071 16.4233C100.071 15.5999 99.8258 14.9603 99.3352 14.5048C98.8621 14.0493 98.1876 13.8215 97.3115 13.8215H95.0513V18.9201Z" fill="white"/>
<path d="M74.7986 29.5903V10.4049H81.0273C82.3589 10.4049 83.5153 10.659 84.4965 11.1671C85.4952 11.6752 86.2661 12.3935 86.8092 13.3221C87.3699 14.2332 87.6502 15.3108 87.6502 16.5548V23.4142C87.6502 24.6407 87.3699 25.7182 86.8092 26.6468C86.2661 27.5754 85.4952 28.3025 84.4965 28.8282C83.5153 29.3363 82.3589 29.5903 81.0273 29.5903H74.7986ZM78.7408 25.9109H81.0273C81.8333 25.9109 82.4816 25.6832 82.9721 25.2276C83.4627 24.7721 83.708 24.1676 83.708 23.4142V16.5548C83.708 15.8189 83.4627 15.2232 82.9721 14.7676C82.4816 14.3121 81.8333 14.0843 81.0273 14.0843H78.7408V25.9109Z" fill="white"/>
<path d="M58.567 29.5903V10.4049H64.7431C66.1098 10.4049 67.2924 10.6414 68.2911 11.1145C69.2898 11.5876 70.0607 12.2621 70.6039 13.1382C71.1645 14.0142 71.4449 15.048 71.4449 16.2394C71.4449 17.4834 71.1383 18.5959 70.525 19.5771C69.9293 20.5583 69.1146 21.2679 68.0809 21.7059L71.7077 29.5903H67.4238L64.3226 22.3367H62.4829V29.5903H58.567ZM62.4829 18.9201H64.7431C65.6192 18.9201 66.2937 18.7011 66.7668 18.263C67.2574 17.825 67.5027 17.2118 67.5027 16.4233C67.5027 15.5999 67.2574 14.9603 66.7668 14.5048C66.2937 14.0493 65.6192 13.8215 64.7431 13.8215H62.4829V18.9201Z" fill="white"/>
<path d="M46.4878 29.5903V14.0843H41.6258V10.4049H55.2921V14.0843H50.43V29.5903H46.4878Z" fill="white"/>
</g>
<path d="M90.6092 61.0613V52.334H93.6603C94.2683 52.334 94.7697 52.4392 95.1646 52.6494C95.5595 52.8568 95.8535 53.1366 96.0467 53.4889C96.2399 53.8383 96.3364 54.2261 96.3364 54.6522C96.3364 55.0272 96.2697 55.3369 96.1362 55.5812C96.0055 55.8255 95.8322 56.0187 95.6163 56.1607C95.4032 56.3028 95.1717 56.4079 94.9217 56.4761V56.5613C95.1887 56.5784 95.4572 56.6721 95.7271 56.8426C95.997 57.013 96.2228 57.2573 96.4046 57.5755C96.5865 57.8937 96.6774 58.2829 96.6774 58.7431C96.6774 59.1806 96.5779 59.5741 96.3791 59.9235C96.1802 60.273 95.8663 60.5499 95.4373 60.7545C95.0083 60.959 94.4501 61.0613 93.7626 61.0613H90.6092ZM91.666 60.1238H93.7626C94.4529 60.1238 94.943 59.9903 95.2328 59.7232C95.5254 59.4534 95.6717 59.1267 95.6717 58.7431C95.6717 58.4477 95.5964 58.1749 95.4458 57.9249C95.2952 57.6721 95.0808 57.4704 94.8024 57.3198C94.5239 57.1664 94.1944 57.0897 93.8137 57.0897H91.666V60.1238ZM91.666 56.1693H93.6262C93.9444 56.1693 94.2313 56.1068 94.487 55.9818C94.7455 55.8568 94.9501 55.6806 95.1006 55.4534C95.2541 55.2261 95.3308 54.959 95.3308 54.6522C95.3308 54.2687 95.1972 53.9434 94.9302 53.6764C94.6631 53.4065 94.2399 53.2715 93.6603 53.2715H91.666V56.1693Z" fill="#E8E8E8"/>
<path d="M85.5219 52.334H86.5788V58.1124C86.5788 58.709 86.4381 59.2417 86.1569 59.7105C85.8785 60.1764 85.485 60.5443 84.9765 60.8142C84.468 61.0812 83.8714 61.2147 83.1867 61.2147C82.502 61.2147 81.9054 61.0812 81.3969 60.8142C80.8884 60.5443 80.4935 60.1764 80.2123 59.7105C79.9339 59.2417 79.7947 58.709 79.7947 58.1124V52.334H80.8515V58.0272C80.8515 58.4534 80.9452 58.8326 81.1327 59.165C81.3202 59.4945 81.5873 59.7545 81.9339 59.9448C82.2833 60.1323 82.7009 60.2261 83.1867 60.2261C83.6725 60.2261 84.0901 60.1323 84.4395 59.9448C84.789 59.7545 85.056 59.4945 85.2407 59.165C85.4282 58.8326 85.5219 58.4534 85.5219 58.0272V52.334Z" fill="#E8E8E8"/>
<path d="M68.9918 61.0613V52.334H70.0487V56.2204H74.7021V52.334H75.7589V61.0613H74.7021V57.1579H70.0487V61.0613H68.9918Z" fill="#E8E8E8"/>
<path d="M59.6621 52.334V61.0613H58.6394L53.8837 54.209H53.7985V61.0613H52.7417V52.334H53.7644L58.5371 59.2034H58.6224V52.334H59.6621Z" fill="#E8E8E8"/>
<path d="M47.8696 55.0613C47.7759 54.7744 47.6523 54.5173 47.4989 54.29C47.3483 54.0599 47.1679 53.8639 46.9577 53.7019C46.7503 53.54 46.5145 53.4164 46.2503 53.3312C45.9861 53.246 45.6963 53.2034 45.381 53.2034C44.8639 53.2034 44.3938 53.3369 43.9705 53.6039C43.5472 53.871 43.2105 54.2644 42.9605 54.7843C42.7105 55.3042 42.5855 55.942 42.5855 56.6977C42.5855 57.4534 42.7119 58.0911 42.9648 58.611C43.2176 59.1309 43.56 59.5244 43.9918 59.7914C44.4236 60.0585 44.9094 60.192 45.4492 60.192C45.9492 60.192 46.3895 60.0855 46.7702 59.8724C47.1537 59.6565 47.452 59.3525 47.6651 58.9605C47.881 58.5656 47.9889 58.1011 47.9889 57.567L48.3128 57.6352H45.6878V56.6977H49.0117V57.6352C49.0117 58.3539 48.8583 58.9789 48.5514 59.5102C48.2475 60.0414 47.827 60.4534 47.2901 60.746C46.756 61.0357 46.1423 61.1806 45.4492 61.1806C44.6764 61.1806 43.9975 60.9988 43.4122 60.6352C42.8298 60.2715 42.3753 59.7545 42.0486 59.084C41.7247 58.4136 41.5628 57.6181 41.5628 56.6977C41.5628 56.0073 41.6551 55.3866 41.8398 54.8355C42.0273 54.2815 42.2915 53.8099 42.6324 53.4207C42.9733 53.0315 43.3767 52.7332 43.8426 52.5258C44.3085 52.3184 44.8213 52.2147 45.381 52.2147C45.8412 52.2147 46.2702 52.2843 46.6679 52.4235C47.0685 52.5599 47.425 52.7545 47.7375 53.0073C48.0529 53.2573 48.3156 53.5571 48.5259 53.9065C48.7361 54.2531 48.881 54.638 48.9605 55.0613H47.8696Z" fill="#E8E8E8"/>
<path d="M37.8648 52.334V61.0613H36.8079V52.334H37.8648Z" fill="#E8E8E8"/>
<path d="M32.0083 54.5159C31.9572 54.084 31.7498 53.7488 31.3862 53.5102C31.0225 53.2715 30.5765 53.1522 30.0481 53.1522C29.6617 53.1522 29.3237 53.2147 29.0339 53.3397C28.747 53.4647 28.5225 53.6366 28.3606 53.8553C28.2015 54.0741 28.1219 54.3227 28.1219 54.6011C28.1219 54.834 28.1773 55.0343 28.2881 55.2019C28.4018 55.3667 28.5467 55.5045 28.7228 55.6153C28.8989 55.7232 29.0836 55.8127 29.2768 55.8838C29.47 55.9519 29.6475 56.0073 29.8094 56.0499L30.6958 56.2886C30.9231 56.3482 31.1759 56.4306 31.4543 56.5357C31.7356 56.6409 32.0041 56.7843 32.2597 56.9661C32.5183 57.1451 32.7313 57.3752 32.8989 57.6565C33.0666 57.9377 33.1504 58.2829 33.1504 58.692C33.1504 59.1636 33.0268 59.5897 32.7796 59.9704C32.5353 60.3511 32.1773 60.6536 31.7058 60.8781C31.237 61.1025 30.6674 61.2147 29.9969 61.2147C29.3719 61.2147 28.8308 61.1139 28.3734 60.9122C27.9188 60.7105 27.5609 60.4292 27.2995 60.0684C27.041 59.7076 26.8947 59.2886 26.8606 58.8113H27.9515C27.9799 59.1409 28.0907 59.4136 28.2839 59.6295C28.4799 59.8426 28.7271 60.0017 29.0254 60.1068C29.3265 60.209 29.6504 60.2602 29.9969 60.2602C30.4004 60.2602 30.7626 60.1948 31.0836 60.0642C31.4046 59.9306 31.6589 59.746 31.8464 59.5102C32.0339 59.2715 32.1276 58.9931 32.1276 58.6749C32.1276 58.3852 32.0467 58.1494 31.8847 57.9676C31.7228 57.7857 31.5097 57.638 31.2455 57.5244C30.9813 57.4107 30.6958 57.3113 30.389 57.2261L29.3151 56.9193C28.6333 56.7232 28.0935 56.4434 27.6958 56.0798C27.2981 55.7161 27.0992 55.2403 27.0992 54.6522C27.0992 54.1636 27.2313 53.7374 27.4955 53.3738C27.7626 53.0073 28.1205 52.7232 28.5694 52.5215C29.0211 52.317 29.5254 52.2147 30.0822 52.2147C30.6447 52.2147 31.1447 52.3156 31.5822 52.5173C32.0197 52.7161 32.3663 52.9889 32.6219 53.3355C32.8805 53.6821 33.0168 54.0755 33.031 54.5159H32.0083Z" fill="#E8E8E8"/>
<path d="M18.1437 61.0613V52.334H23.4108V53.2715H19.2005V56.2204H23.138V57.1579H19.2005V60.1238H23.4789V61.0613H18.1437Z" fill="#E8E8E8"/>
<path d="M10.2919 61.0613H7.59872V52.334H10.4112C11.2578 52.334 11.9822 52.5088 12.5845 52.8582C13.1868 53.2048 13.6484 53.7034 13.9695 54.3539C14.2905 55.0017 14.451 55.7772 14.451 56.6806C14.451 57.5897 14.2891 58.3724 13.9652 59.0286C13.6413 59.682 13.1697 60.1849 12.5504 60.5372C11.9311 60.8866 11.1783 61.0613 10.2919 61.0613ZM8.65553 60.1238H10.2237C10.9453 60.1238 11.5433 59.9846 12.0177 59.7062C12.4922 59.4278 12.8459 59.0315 13.0788 58.5173C13.3118 58.0031 13.4283 57.3909 13.4283 56.6806C13.4283 55.9761 13.3132 55.3695 13.0831 54.861C12.853 54.3497 12.5092 53.9576 12.0518 53.6849C11.5945 53.4093 11.0249 53.2715 10.343 53.2715H8.65553V60.1238Z" fill="#E8E8E8"/>
<defs>
<clipPath id="clip0_2420_29948">
<rect width="104.276" height="40.2147" fill="white"/>
</clipPath>
</defs>
</svg>
