<svg width="113" height="44" viewBox="0 0 113 44" fill="none" xmlns="http://www.w3.org/2000/svg">
<g clip-path="url(#clip0_2420_29948)">
<path d="M39.8202 22.6851C39.2364 22.6654 38.6526 22.6467 38.0689 22.629C32.8149 22.4697 27.561 22.3901 22.307 22.3901C17.053 22.3901 11.7991 22.4697 6.54512 22.629C5.96135 22.6467 5.37757 22.6654 4.7938 22.6851C5.37757 22.7047 5.96135 22.7234 6.54512 22.7411C11.7991 22.9004 17.053 22.98 22.307 22.98C27.561 22.98 32.8149 22.9004 38.0689 22.7411C38.6526 22.7234 39.2364 22.7047 39.8202 22.6851Z" fill="#00D4FF"/>
<path d="M14.1895 19.7463C15.2739 20.7986 15.6169 22.1681 15.7793 22.6554L15.7168 22.6916C15.4623 22.4007 14.8939 21.9715 14.2803 21.548C13.6681 21.1255 13.0141 20.7109 12.5908 20.4494C12.1836 20.1978 11.8622 20.0043 11.5938 19.8537C12.1524 19.7988 12.7516 19.7599 13.3477 19.7599C13.4153 19.7599 13.4816 19.7565 13.5469 19.756C13.5541 19.7564 13.5611 19.759 13.5684 19.759C13.5812 19.759 13.5939 19.756 13.6065 19.7551C13.8109 19.7532 14.0042 19.7506 14.1895 19.7463ZM24.7764 0.175949C25.6917 0.146709 26.5953 0.331721 27.4483 0.642746C27.919 0.98818 28.3852 1.32666 28.8516 1.66325C31.2961 3.28287 32.8913 5.97655 32.4024 8.98454C32.3792 9.19671 32.3519 9.40289 32.3184 9.61638C32.3118 9.65905 32.3208 9.70403 32.3447 9.7404C32.3688 9.77666 32.4062 9.80251 32.4483 9.81169C32.4903 9.82076 32.5354 9.8123 32.5723 9.78923C32.6089 9.76607 32.6348 9.729 32.6465 9.68767C32.7054 9.47417 32.7584 9.26593 32.8057 9.04997C33.3426 7.26041 32.9492 5.31459 31.9971 3.68572C32.1651 3.85974 32.3136 4.02238 32.4375 4.17107L32.4385 4.17204C33.1253 5.0306 34.2661 6.5472 35.6651 8.0822C35.636 8.15307 35.6085 8.2247 35.5821 8.29704C35.3955 8.60087 35.2866 8.93356 35.2354 9.27458C33.5818 10.0322 31.8523 11.3458 31.458 13.3146C31.4177 13.4213 31.3833 13.5302 31.3584 13.6427C31.3397 13.7284 31.322 13.8155 31.3067 13.9045C31.1115 14.468 30.0994 15.25 29.2061 15.6301C29.1334 15.6612 29.0591 15.6903 28.9844 15.7179C28.9453 15.7322 28.9103 15.7583 28.8877 15.7941C28.8651 15.8301 28.8571 15.8727 28.8653 15.9133C28.8734 15.9536 28.8972 15.9894 28.9317 16.0138C28.9663 16.0382 29.0092 16.049 29.0508 16.047C29.137 16.0424 29.2236 16.0353 29.3096 16.0246C30.0875 15.8736 30.8915 15.6783 31.5147 15.0685C31.5393 15.1468 31.567 15.2254 31.5996 15.3029C31.9927 16.3742 33.4388 16.9087 34.376 16.2785C34.6062 16.127 34.8036 15.8825 34.8545 15.6037C34.8609 15.5629 34.8558 15.5196 34.836 15.4826C34.816 15.4454 34.7831 15.4175 34.7442 15.4045C34.7052 15.3915 34.6624 15.3945 34.624 15.4123C34.5858 15.4301 34.5556 15.4615 34.5362 15.4982C34.4452 15.6521 34.2944 15.7486 34.127 15.8029C33.4137 16.0121 32.6693 15.5976 32.4239 14.9543C32.3139 14.6944 32.2658 14.3931 32.2637 14.0763C32.2411 12.3693 33.6388 10.9407 35.2051 10.0031C35.2226 10.3128 35.2749 10.6174 35.3467 10.9015C35.3537 10.9288 35.3607 10.957 35.3682 10.9845C35.4936 11.4411 35.7383 11.9447 36.2207 12.2492C36.7072 12.5589 37.2978 12.5118 37.7217 12.3205C37.8216 12.2763 37.9137 12.2279 38.0127 12.1623C38.0456 12.1376 38.0726 12.1036 38.085 12.0636C38.0974 12.0237 38.0948 11.981 38.0772 11.9445C38.0595 11.9081 38.0273 11.8795 37.9883 11.8644C37.9494 11.8495 37.9059 11.8491 37.8662 11.8595C37.7911 11.8734 37.6934 11.8878 37.6084 11.8927C36.7843 11.9549 36.4159 11.4791 36.2334 10.7521C36.2271 10.7279 36.221 10.7037 36.2149 10.6799C36.0509 10.014 35.9096 9.33601 36.0078 8.68864C36.0216 8.62548 36.0365 8.56189 36.0528 8.49822C37.3849 9.9125 38.9181 11.2924 40.501 12.132C43.9587 13.966 46.7607 14.0066 48.4824 13.8918L48.5 13.9621C47.0174 14.6293 45.2213 14.7544 43.5684 14.6418C41.9403 14.5308 40.4471 14.1883 39.5205 13.9025C39.5089 14.0917 39.4365 14.4165 39.3008 14.8146C39.1523 15.2504 38.93 15.7792 38.6358 16.3244C38.0064 17.4904 36.9699 18.5912 36.2071 19.0998C35.798 19.3726 35.4282 19.789 35.1504 20.1437C35.0118 20.3208 34.896 20.4822 34.8106 20.6017C34.7681 20.6612 34.7322 20.7113 34.7051 20.7472C34.6918 20.7649 34.6798 20.7799 34.6699 20.7912C34.665 20.7968 34.6599 20.8025 34.6553 20.8068C34.6511 20.8107 34.6448 20.816 34.6377 20.8195C34.6309 20.8228 34.6237 20.8244 34.6182 20.8254C34.612 20.8265 34.6048 20.8278 34.5977 20.8283C34.5834 20.8293 34.5655 20.8296 34.5449 20.8293C34.5034 20.8287 34.4474 20.8261 34.3819 20.8215C34.2506 20.8122 34.0758 20.7959 33.8848 20.7775C33.502 20.7406 33.0516 20.6943 32.7393 20.6759C32.4205 20.6572 32.1991 20.5721 32.0332 20.4181C31.8686 20.265 31.7617 20.0466 31.6641 19.7717C31.6121 19.6252 31.5778 19.4298 31.5557 19.2218C31.5896 19.1376 31.6153 19.0531 31.627 18.966C31.7216 18.2608 31.7363 17.5443 31.6699 16.8176C31.6652 16.7658 31.6599 16.7132 31.6543 16.6613C31.6499 16.6211 31.6357 16.5806 31.6094 16.549C31.5831 16.5175 31.5469 16.4967 31.5078 16.4914C31.4686 16.4861 31.4284 16.4971 31.3946 16.5207C31.3608 16.5442 31.3362 16.5787 31.3213 16.6164C31.3023 16.665 31.2829 16.7141 31.2647 16.7629C31.0817 17.2521 30.9403 17.7469 30.8399 18.2472C30.6414 18.3377 30.3972 18.4425 30.0596 18.5363C29.3945 18.721 28.6835 18.863 28.0957 18.9592C27.9732 18.9792 27.8557 18.9959 27.7451 19.0119C28.0411 18.5646 28.2389 18.0438 28.2764 17.55C28.2835 17.4892 28.2889 17.4296 28.294 17.3674C28.2968 17.3266 28.289 17.2839 28.2676 17.2482C28.2462 17.2128 28.2132 17.1862 28.1748 17.175C28.1365 17.1639 28.0947 17.1692 28.0576 17.1877C28.0206 17.2063 27.9911 17.2377 27.9717 17.2736C27.9436 17.3261 27.9158 17.3759 27.8877 17.4259C27.4925 18.1536 27.0582 18.643 26.4317 19.1115C26.2557 19.2515 26.1003 19.4456 25.9922 19.6916C25.9676 19.7472 25.947 19.8057 25.9278 19.8664C25.4903 20.217 24.9952 20.6147 24.6533 20.8888C24.2805 21.1878 23.8016 21.6477 23.416 22.0334C23.2237 22.2258 23.0546 22.3999 22.9336 22.5256C22.9173 22.5425 22.9013 22.5582 22.8867 22.5734L23.1094 21.0793L23.7627 19.6252C23.8672 19.5059 23.9495 19.3498 24.0098 19.2062C24.083 19.032 24.1521 18.8203 24.211 18.5881C24.3285 18.1238 24.414 17.5451 24.4141 16.9523C24.4141 16.3152 24.5258 15.8943 24.7227 15.5636C24.9222 15.2286 25.2358 14.9399 25.7276 14.6115C25.7386 14.6062 25.75 14.602 25.7608 14.5968C26.1395 14.4172 26.4764 14.3656 26.7989 14.5226C27.1276 14.6797 27.4367 15.054 27.6524 15.4689C27.6831 15.5286 27.7117 15.589 27.7364 15.6486C27.7513 15.6871 27.7779 15.722 27.8135 15.7443C27.8491 15.7664 27.8908 15.7746 27.9307 15.7668C27.9708 15.7587 28.0068 15.7347 28.0313 15.7004C28.0555 15.6662 28.0664 15.6244 28.0655 15.5832C28.0619 15.503 28.054 15.4256 28.042 15.3478C27.9513 14.8157 27.7341 14.2593 27.211 13.8674C27.0647 13.754 26.8978 13.6783 26.7227 13.632C27.2064 12.9388 27.516 12.0055 27.3604 10.8634C27.2521 10.0697 27.1439 8.99686 26.6533 7.87322C26.1565 6.73577 25.2774 5.56287 23.6592 4.5031C21.9935 3.41243 19.9794 3.25054 18.4278 3.34294C17.972 3.3701 17.5502 3.42046 17.1817 3.47673C17.7413 3.04391 18.3207 2.61244 18.9297 2.21111C20.5849 1.12033 22.4629 0.249984 24.7764 0.175949ZM22.3037 20.6857C21.2364 20.9043 19.7019 21.3745 18.0489 22.3664L18.001 22.3127C18.777 21.2781 19.414 20.7075 20.003 20.3381C20.2396 20.1897 20.4692 20.0755 20.6953 19.9748C20.9645 19.9611 21.222 19.9449 21.4571 19.922C21.8766 19.8812 22.2611 19.8226 22.5196 19.7365C22.6123 19.7056 22.6934 19.6815 22.7637 19.6633L22.3037 20.6857ZM11.3301 7.22185C12.2555 7.47355 13.5526 8.02786 14.6836 8.9279C16.0271 9.99702 17.0957 11.5135 17.0957 13.5451C17.0956 15.1066 16.2708 16.4439 15.3594 17.4133C14.9072 17.8942 14.4449 18.2721 14.0791 18.5275C13.896 18.6554 13.7416 18.7499 13.6289 18.8097C13.5806 18.8354 13.5435 18.8512 13.5186 18.8615C13.4622 18.8619 13.4052 18.8644 13.3477 18.8644C13.1852 18.8644 13.0222 18.8674 12.8604 18.8722C12.9621 18.8092 13.0621 18.743 13.1592 18.672C14.3247 17.8406 15.2269 16.4369 15.1739 14.925C15.1449 13.3072 14.2207 11.8457 12.9873 10.965C12.8168 10.8437 12.6375 10.7312 12.4483 10.6369C12.4097 10.6181 12.3649 10.6124 12.3233 10.6242C12.2814 10.6361 12.2451 10.6641 12.2237 10.7013C12.2023 10.7387 12.1972 10.7842 12.208 10.8263C12.2191 10.8683 12.2464 10.9042 12.2822 10.9279C12.4381 11.0316 12.5897 11.1545 12.7324 11.2834C13.7772 12.2334 14.4428 13.5802 14.3897 14.925C14.3616 16.1336 13.6298 17.228 12.6309 17.9484C12.039 18.3799 11.3872 18.7431 10.6807 19.0558C10.1618 19.1243 9.70698 19.2007 9.35842 19.2638C8.27299 19.1939 7.59336 19.127 7.14944 19.0168L5.82815 19.0529C4.80325 19.2373 3.35428 19.9707 2.15725 20.6613C1.55896 21.0065 1.02507 21.3406 0.640648 21.5881C0.448501 21.7117 0.29324 21.8147 0.186546 21.8859C0.133582 21.9212 0.0923582 21.9491 0.064476 21.9679C0.0505698 21.9774 0.0393767 21.9846 0.0322495 21.9894C0.0288116 21.9918 0.0262 21.9941 0.024437 21.9953L0.0224838 21.9963L-0.0282974 21.9435L-0.0263443 21.9416C-0.0251943 21.9401 -0.0235703 21.9375 -0.0214615 21.9347C-0.0166692 21.9285 -0.00930419 21.9185 2.28882e-05 21.9064C0.0188578 21.882 0.0469751 21.8454 0.0830307 21.799C0.155356 21.7059 0.261229 21.5713 0.393578 21.4045C0.658707 21.0703 1.03244 20.6069 1.46584 20.091C2.3289 19.0637 3.43067 17.8251 4.38869 16.9797C4.38909 16.1351 4.41727 15.3256 4.49123 14.5519C4.52093 14.5272 4.54283 14.4942 4.55569 14.4582C4.60427 14.319 4.65188 14.1848 4.69729 14.0558C4.88106 13.5252 5.0438 13.0214 5.21389 12.5275C5.72462 10.7376 7.45452 9.70905 9.40237 9.89372C9.53768 9.90092 9.6779 9.91264 9.81252 9.92693C9.8549 9.93142 9.89908 9.92117 9.93459 9.89665C9.96978 9.87214 9.99457 9.83548 10.003 9.79411C10.0113 9.7525 10.0027 9.70836 9.97952 9.67204C9.95616 9.63575 9.91881 9.60996 9.87795 9.59782C9.74226 9.558 9.59919 9.52072 9.45901 9.48943C8.22705 9.09985 6.72046 9.45002 5.64846 10.3068C5.68967 10.229 5.73067 10.151 5.77444 10.0744C6.33344 9.0964 7.49416 8.41274 8.70998 7.94548C9.62341 7.59445 10.5723 7.36387 11.3301 7.22185ZM18.4815 4.23747C19.9529 4.14988 21.7371 4.31529 23.168 5.25212C24.6456 6.21971 25.4082 7.25881 25.833 8.23161C26.2638 9.2184 26.3597 10.1563 26.4727 10.9845C26.6663 12.406 25.9498 13.3877 25.2364 13.8634C24.6959 14.2238 24.2521 14.6018 23.9522 15.1056C23.6488 15.6153 23.5186 16.2086 23.5186 16.9523C23.5185 17.4638 23.4431 17.9684 23.3418 18.3683C23.3084 18.5004 23.2704 18.6174 23.2354 18.7179C22.9835 18.6921 22.6567 18.7468 22.2364 18.8869C22.0807 18.9388 21.7829 18.9912 21.3701 19.0314C20.9682 19.0705 20.4878 19.0959 19.9873 19.1056C18.9789 19.1253 17.9226 19.0811 17.2725 18.9728C16.4968 18.8436 15.8267 18.8243 15.1485 18.8322C15.4249 18.6032 15.7215 18.3353 16.0117 18.0265C17.0016 16.9737 17.9921 15.4272 17.9922 13.5451C17.9922 11.1577 16.7236 9.40641 15.2412 8.22673C14.3936 7.55228 13.4626 7.05226 12.625 6.71404L14.417 5.57341C14.8358 5.29097 15.254 4.97689 15.6797 4.64861C15.7642 4.6762 15.8579 4.6804 15.9492 4.65251L15.9502 4.65154C15.9518 4.65112 15.9548 4.65055 15.958 4.64958C15.9652 4.64746 15.9771 4.64411 15.9922 4.63982C16.0229 4.63109 16.07 4.61759 16.1309 4.60173C16.2533 4.56985 16.4339 4.52643 16.6602 4.47966C17.1144 4.3858 17.7522 4.28093 18.4815 4.23747ZM4.80569 11.1379C4.78898 11.1991 4.76734 11.262 4.74514 11.3273C4.61475 11.5445 4.50732 11.7764 4.42776 12.0217C4.17408 12.4617 3.81032 12.9108 3.31545 13.256C2.46782 13.8472 1.24696 14.1358 -0.419899 13.5802L-0.41404 13.509C0.274383 13.3942 1.35954 13.1352 2.37502 12.7336C2.8824 12.5329 3.37173 12.2968 3.78518 12.0256C4.19896 11.754 4.53509 11.448 4.7383 11.1095L4.80569 11.1379ZM39.9981 10.8732C41.1466 11.3326 44.0632 12.1816 46.5401 11.9064L46.5576 11.9777C45.806 12.2668 44.5749 12.5609 43.3233 12.506C42.0715 12.4511 40.7927 12.0455 39.9551 10.9289L39.876 10.8244L39.9981 10.8732Z" fill="#00D4FF"/>
<path d="M99.7427 21.5842V2.39877H105.919C107.286 2.39877 108.468 2.63531 109.467 3.10837C110.466 3.58143 111.236 4.25599 111.78 5.13204C112.34 6.00808 112.621 7.04182 112.621 8.23324C112.621 9.47723 112.314 10.5898 111.701 11.571C111.105 12.5521 110.29 13.2617 109.257 13.6998L112.883 21.5842H108.6L105.498 14.3305H103.659V21.5842H99.7427ZM103.659 10.9139H105.919C106.795 10.9139 107.469 10.6949 107.943 10.2569C108.433 9.81888 108.678 9.20565 108.678 8.41721C108.678 7.59373 108.433 6.95421 107.943 6.49867C107.469 6.04313 106.795 5.81535 105.919 5.81535H103.659V10.9139Z" fill="white"/>
<path d="M83.406 21.5842V2.39877H89.6347C90.9663 2.39877 92.1226 2.65283 93.1038 3.16093C94.1025 3.66904 94.8734 4.3874 95.4166 5.31601C95.9772 6.22709 96.2576 7.30463 96.2576 8.54862V15.4081C96.2576 16.6345 95.9772 17.7121 95.4166 18.6407C94.8734 19.5693 94.1025 20.2964 93.1038 20.822C92.1226 21.3301 90.9663 21.5842 89.6347 21.5842H83.406ZM87.3482 17.9048H89.6347C90.4406 17.9048 91.0889 17.677 91.5795 17.2215C92.0701 16.7659 92.3154 16.1615 92.3154 15.4081V8.54862C92.3154 7.81274 92.0701 7.21703 91.5795 6.76148C91.0889 6.30594 90.4406 6.07817 89.6347 6.07817H87.3482V17.9048Z" fill="white"/>
<path d="M67.1744 21.5842V2.39877H73.3505C74.7171 2.39877 75.8998 2.63531 76.8985 3.10837C77.8972 3.58143 78.6681 4.25599 79.2112 5.13204C79.7719 6.00808 80.0522 7.04182 80.0522 8.23324C80.0522 9.47723 79.7456 10.5898 79.1324 11.571C78.5367 12.5521 77.7219 13.2617 76.6882 13.6998L80.315 21.5842H76.0312L72.93 14.3305H71.0903V21.5842H67.1744ZM71.0903 10.9139H73.3505C74.2265 10.9139 74.9011 10.6949 75.3741 10.2569C75.8647 9.81888 76.11 9.20565 76.11 8.41721C76.11 7.59373 75.8647 6.95421 75.3741 6.49867C74.9011 6.04313 74.2265 5.81535 73.3505 5.81535H71.0903V10.9139Z" fill="white"/>
<path d="M55.0952 21.5842V6.07817H50.2331V2.39877H63.8994V6.07817H59.0374V21.5842H55.0952Z" fill="white"/>
</g>
<path d="M94.9129 43.8466V35.1193H97.964C98.5719 35.1193 99.0734 35.2244 99.4683 35.4347C99.8631 35.642 100.157 35.9219 100.35 36.2741C100.544 36.6236 100.64 37.0114 100.64 37.4375C100.64 37.8125 100.573 38.1222 100.44 38.3665C100.309 38.6108 100.136 38.804 99.92 38.946C99.7069 39.0881 99.4754 39.1932 99.2254 39.2614V39.3466C99.4924 39.3636 99.7609 39.4574 100.031 39.6278C100.301 39.7983 100.526 40.0426 100.708 40.3608C100.89 40.679 100.981 41.0682 100.981 41.5284C100.981 41.9659 100.882 42.3594 100.683 42.7088C100.484 43.0582 100.17 43.3352 99.741 43.5398C99.312 43.7443 98.7538 43.8466 98.0663 43.8466H94.9129ZM95.9697 42.9091H98.0663C98.7566 42.9091 99.2467 42.7756 99.5364 42.5085C99.8291 42.2386 99.9754 41.9119 99.9754 41.5284C99.9754 41.233 99.9001 40.9602 99.7495 40.7102C99.5989 40.4574 99.3844 40.2557 99.106 40.1051C98.8276 39.9517 98.4981 39.875 98.1174 39.875H95.9697V42.9091ZM95.9697 38.9545H97.9299C98.2481 38.9545 98.535 38.892 98.7907 38.767C99.0492 38.642 99.2538 38.4659 99.4043 38.2386C99.5577 38.0114 99.6344 37.7443 99.6344 37.4375C99.6344 37.054 99.5009 36.7287 99.2339 36.4616C98.9668 36.1918 98.5435 36.0568 97.964 36.0568H95.9697V38.9545Z" fill="#E8E8E8"/>
<path d="M89.8256 35.1193H90.8824V40.8977C90.8824 41.4943 90.7418 42.027 90.4606 42.4957C90.1822 42.9616 89.7887 43.3295 89.2802 43.5994C88.7716 43.8665 88.175 44 87.4904 44C86.8057 44 86.2091 43.8665 85.7006 43.5994C85.1921 43.3295 84.7972 42.9616 84.516 42.4957C84.2375 42.027 84.0983 41.4943 84.0983 40.8977V35.1193H85.1552V40.8125C85.1552 41.2386 85.2489 41.6179 85.4364 41.9503C85.6239 42.2798 85.891 42.5398 86.2375 42.7301C86.587 42.9176 87.0046 43.0114 87.4904 43.0114C87.9762 43.0114 88.3938 42.9176 88.7432 42.7301C89.0927 42.5398 89.3597 42.2798 89.5444 41.9503C89.7319 41.6179 89.8256 41.2386 89.8256 40.8125V35.1193Z" fill="#E8E8E8"/>
<path d="M73.2955 43.8466V35.1193H74.3523V39.0057H79.0057V35.1193H80.0626V43.8466H79.0057V39.9432H74.3523V43.8466H73.2955Z" fill="#E8E8E8"/>
<path d="M63.9658 35.1193V43.8466H62.9431L58.1874 36.9943H58.1022V43.8466H57.0454V35.1193H58.0681L62.8408 41.9886H62.926V35.1193H63.9658Z" fill="#E8E8E8"/>
<path d="M52.1733 37.8466C52.0796 37.5597 51.956 37.3026 51.8026 37.0753C51.652 36.8452 51.4716 36.6491 51.2614 36.4872C51.054 36.3253 50.8182 36.2017 50.554 36.1165C50.2898 36.0313 50 35.9886 49.6847 35.9886C49.1676 35.9886 48.6975 36.1222 48.2742 36.3892C47.8509 36.6563 47.5142 37.0497 47.2642 37.5696C47.0142 38.0895 46.8892 38.7273 46.8892 39.483C46.8892 40.2386 47.0156 40.8764 47.2685 41.3963C47.5213 41.9162 47.8636 42.3097 48.2955 42.5767C48.7273 42.8438 49.2131 42.9773 49.7528 42.9773C50.2528 42.9773 50.6932 42.8707 51.0739 42.6577C51.4574 42.4418 51.7557 42.1378 51.9688 41.7457C52.1847 41.3509 52.2926 40.8864 52.2926 40.3523L52.6165 40.4205H49.9915V39.483H53.3153V40.4205C53.3153 41.1392 53.1619 41.7642 52.8551 42.2955C52.5511 42.8267 52.1307 43.2386 51.5938 43.5312C51.0597 43.821 50.446 43.9659 49.7528 43.9659C48.9801 43.9659 48.3011 43.7841 47.7159 43.4205C47.1335 43.0568 46.679 42.5398 46.3523 41.8693C46.0284 41.1989 45.8665 40.4034 45.8665 39.483C45.8665 38.7926 45.9588 38.1719 46.1435 37.6207C46.331 37.0668 46.5952 36.5952 46.9361 36.206C47.277 35.8168 47.6804 35.5185 48.1463 35.3111C48.6122 35.1037 49.125 35 49.6847 35C50.1449 35 50.5739 35.0696 50.9716 35.2088C51.3722 35.3452 51.7287 35.5398 52.0412 35.7926C52.3565 36.0426 52.6193 36.3423 52.8296 36.6918C53.0398 37.0384 53.1847 37.4233 53.2642 37.8466H52.1733Z" fill="#E8E8E8"/>
<path d="M42.1684 35.1193V43.8466H41.1116V35.1193H42.1684Z" fill="#E8E8E8"/>
<path d="M36.312 37.3011C36.2609 36.8693 36.0535 36.5341 35.6898 36.2955C35.3262 36.0568 34.8802 35.9375 34.3518 35.9375C33.9654 35.9375 33.6273 36 33.3376 36.125C33.0506 36.25 32.8262 36.4219 32.6643 36.6406C32.5052 36.8594 32.4256 37.108 32.4256 37.3864C32.4256 37.6193 32.481 37.8196 32.5918 37.9872C32.7055 38.152 32.8503 38.2898 33.0265 38.4006C33.2026 38.5085 33.3873 38.598 33.5805 38.669C33.7736 38.7372 33.9512 38.7926 34.1131 38.8352L34.9995 39.0739C35.2268 39.1335 35.4796 39.2159 35.758 39.321C36.0393 39.4261 36.3077 39.5696 36.5634 39.7514C36.8219 39.9304 37.035 40.1605 37.2026 40.4418C37.3702 40.723 37.454 41.0682 37.454 41.4773C37.454 41.9489 37.3305 42.375 37.0833 42.7557C36.839 43.1364 36.481 43.4389 36.0094 43.6634C35.5407 43.8878 34.9711 44 34.3006 44C33.6756 44 33.1344 43.8991 32.6771 43.6974C32.2225 43.4957 31.8646 43.2145 31.6032 42.8537C31.3447 42.4929 31.1984 42.0739 31.1643 41.5966H32.2552C32.2836 41.9261 32.3944 42.1989 32.5876 42.4148C32.7836 42.6278 33.0307 42.7869 33.329 42.892C33.6302 42.9943 33.954 43.0455 34.3006 43.0455C34.704 43.0455 35.0663 42.9801 35.3873 42.8494C35.7083 42.7159 35.9626 42.5313 36.1501 42.2955C36.3376 42.0568 36.4313 41.7784 36.4313 41.4602C36.4313 41.1705 36.3504 40.9347 36.1884 40.7528C36.0265 40.571 35.8134 40.4233 35.5492 40.3097C35.285 40.196 34.9995 40.0966 34.6927 40.0114L33.6188 39.7045C32.937 39.5085 32.3972 39.2287 31.9995 38.8651C31.6018 38.5014 31.4029 38.0256 31.4029 37.4375C31.4029 36.9489 31.535 36.5227 31.7992 36.1591C32.0663 35.7926 32.4242 35.5085 32.8731 35.3068C33.3248 35.1023 33.829 35 34.3859 35C34.9484 35 35.4484 35.1009 35.8859 35.3026C36.3234 35.5014 36.67 35.7741 36.9256 36.1207C37.1842 36.4673 37.3205 36.8608 37.3347 37.3011H36.312Z" fill="#E8E8E8"/>
<path d="M22.4474 43.8466V35.1193H27.7144V36.0568H23.5042V39.0057H27.4417V39.9432H23.5042V42.9091H27.7826V43.8466H22.4474Z" fill="#E8E8E8"/>
<path d="M14.5956 43.8466H11.9024V35.1193H14.7149C15.5615 35.1193 16.2859 35.294 16.8882 35.6435C17.4905 35.9901 17.9521 36.4886 18.2731 37.1392C18.5942 37.7869 18.7547 38.5625 18.7547 39.4659C18.7547 40.375 18.5927 41.1577 18.2689 41.8139C17.945 42.4673 17.4734 42.9702 16.8541 43.3224C16.2348 43.6719 15.4819 43.8466 14.5956 43.8466ZM12.9592 42.9091H14.5274C15.249 42.9091 15.847 42.7699 16.3214 42.4915C16.7959 42.2131 17.1496 41.8168 17.3825 41.3026C17.6155 40.7884 17.7319 40.1761 17.7319 39.4659C17.7319 38.7614 17.6169 38.1548 17.3868 37.6463C17.1567 37.1349 16.8129 36.7429 16.3555 36.4702C15.8981 36.1946 15.3285 36.0568 14.6467 36.0568H12.9592V42.9091Z" fill="#E8E8E8"/>
<defs>
<clipPath id="clip0_2420_29948">
<rect width="112.883" height="23" fill="white"/>
</clipPath>
</defs>
</svg>
