<svg width="115" height="68" viewBox="0 0 115 68" fill="none" xmlns="http://www.w3.org/2000/svg">
<path d="M101.459 10.6621L99.8336 20.1145C100.717 18.2682 101.72 16.5825 102.844 15.0573C103.968 13.5321 105.132 12.3279 106.336 11.4449C107.58 10.5218 108.805 10.0601 110.009 10.0601C111.213 10.0601 112.176 10.3813 112.898 11.0234C113.661 11.6656 114.042 12.5086 114.042 13.5521C114.042 14.6759 113.721 15.579 113.079 16.2614C112.437 16.9437 111.574 17.2849 110.49 17.2849C108.804 17.2848 107.239 16.4419 105.794 14.7562C104.349 15.9201 103.105 17.3651 102.061 19.091C101.018 20.7767 100.034 22.6029 99.1113 24.5696L98.6296 27.0381C98.2282 29.1654 97.8069 31.2927 97.3653 33.4199C96.964 35.5472 96.5627 37.6945 96.1613 39.8619L89.358 40.3436L88.756 39.8018L93.2713 18.0073C93.472 17.044 93.4118 16.3015 93.0908 15.7797C92.7697 15.2178 92.2077 14.7964 91.405 14.5155L90.562 14.2143L90.7426 13.1908L100.737 9.99991L101.459 10.6621Z" fill="white"/>
<path d="M63.7228 41.1762C61.4545 41.1762 59.3207 40.6187 57.3215 39.5038C55.3607 38.3504 53.7844 36.678 52.5926 34.4865C51.4007 32.2951 50.8048 29.6422 50.8048 26.5281V25.6054C50.8048 22.4912 51.4007 19.8384 52.5926 17.6469C53.7844 15.4555 55.3607 13.8023 57.3215 12.6873C59.2822 11.5339 61.416 10.9573 63.7228 10.9573C65.4529 10.9573 66.8947 11.1687 68.048 11.5916C69.2399 11.9761 70.2011 12.4759 70.9315 13.091C71.662 13.7062 72.2195 14.3598 72.604 15.0518H73.642V0H80.9084V40.3688H73.7574V36.9086H72.7193C72.0657 37.9851 71.0469 38.9655 69.6628 39.8498C68.3172 40.7341 66.3372 41.1762 63.7228 41.1762ZM65.9143 34.8325C68.1442 34.8325 70.0088 34.1213 71.5082 32.6987C73.0076 31.2378 73.7574 29.1232 73.7574 26.3551V25.7784C73.7574 23.0102 73.0076 20.9149 71.5082 19.4924C70.0473 18.0314 68.1826 17.3009 65.9143 17.3009C63.6844 17.3009 61.8197 18.0314 60.3203 19.4924C58.8209 20.9149 58.0712 23.0102 58.0712 25.7784V26.3551C58.0712 29.1232 58.8209 31.2378 60.3203 32.6987C61.8197 34.1213 63.6844 34.8325 65.9143 34.8325Z" fill="white"/>
<path d="M30.3374 40.3688V11.7646H37.4885V14.9941H38.5265C38.9495 13.8407 39.6415 12.9948 40.6026 12.4566C41.6023 11.9183 42.7557 11.6492 44.0628 11.6492H47.523V18.1082H43.9475C42.1021 18.1082 40.5834 18.608 39.3916 19.6076C38.1997 20.5688 37.6038 22.0682 37.6038 24.1059V40.3688H30.3374Z" fill="white"/>
<path d="M14.9941 40.3689C13.1103 40.3689 11.5724 39.7922 10.3806 38.6388C9.22716 37.447 8.65046 35.8707 8.65046 33.9099V17.7624H1.49941V11.7647H8.65046V2.88358H15.9168V11.7647H23.7599V17.7624H15.9168V32.6412C15.9168 33.7946 16.4551 34.3713 17.5316 34.3713H23.0679V40.3689H14.9941Z" fill="white"/>
<path d="M106.023 63.4099C105.063 63.4099 104.323 63.2366 103.803 62.8899C103.296 62.5433 102.916 62.1566 102.663 61.7299H102.343V63.1299H100.323V49.1299H102.383V54.6099H102.703C102.863 54.3433 103.076 54.0899 103.343 53.8499C103.61 53.5966 103.963 53.3899 104.403 53.2299C104.843 53.0699 105.383 52.9899 106.023 52.9899C106.85 52.9899 107.61 53.1899 108.303 53.5899C108.996 53.9899 109.55 54.5699 109.963 55.3299C110.376 56.0899 110.583 56.9966 110.583 58.0499V58.3499C110.583 59.4166 110.37 60.3299 109.943 61.0899C109.53 61.8366 108.976 62.4099 108.283 62.8099C107.603 63.2099 106.85 63.4099 106.023 63.4099ZM105.423 61.6099C106.316 61.6099 107.05 61.3233 107.623 60.7499C108.21 60.1766 108.503 59.3566 108.503 58.2899V58.1099C108.503 57.0566 108.216 56.2433 107.643 55.6699C107.07 55.0966 106.33 54.8099 105.423 54.8099C104.543 54.8099 103.81 55.0966 103.223 55.6699C102.65 56.2433 102.363 57.0566 102.363 58.1099V58.2899C102.363 59.3566 102.65 60.1766 103.223 60.7499C103.81 61.3233 104.543 61.6099 105.423 61.6099Z" fill="url(#paint0_linear_2297_15672)"/>
<path d="M91.8177 63.3099C91.0711 63.3099 90.4044 63.1433 89.8177 62.8099C89.2311 62.4766 88.7711 62.0033 88.4377 61.3899C88.1044 60.7766 87.9377 60.0433 87.9377 59.1899V53.2699H89.9977V59.0499C89.9977 59.9033 90.2111 60.5366 90.6377 60.9499C91.0644 61.3499 91.6577 61.5499 92.4177 61.5499C93.2577 61.5499 93.9311 61.2699 94.4377 60.7099C94.9577 60.1366 95.2177 59.3166 95.2177 58.2499V53.2699H97.2777V63.1299H95.2577V61.6499H94.9377C94.7511 62.0499 94.4177 62.4299 93.9377 62.7899C93.4577 63.1366 92.7511 63.3099 91.8177 63.3099Z" fill="url(#paint1_linear_2297_15672)"/>
<path d="M74.8527 63.1299V49.1299H77.0127V55.1299H82.8927V49.1299H85.0527V63.1299H82.8927V57.0899H77.0127V63.1299H74.8527Z" fill="url(#paint2_linear_2297_15672)"/>
<path d="M57.5104 63.1299V53.2699H59.5304V54.7499H59.8504C60.0371 54.3499 60.3704 53.9766 60.8504 53.6299C61.3304 53.2833 62.0437 53.1099 62.9904 53.1099C63.7371 53.1099 64.3971 53.2766 64.9704 53.6099C65.5571 53.9433 66.0171 54.4166 66.3504 55.0299C66.6837 55.6299 66.8504 56.3566 66.8504 57.2099V63.1299H64.7904V57.3699C64.7904 56.5166 64.5771 55.8899 64.1504 55.4899C63.7237 55.0766 63.1371 54.8699 62.3904 54.8699C61.5371 54.8699 60.8504 55.1499 60.3304 55.7099C59.8237 56.2699 59.5704 57.0833 59.5704 58.1499V63.1299H57.5104Z" fill="url(#paint3_linear_2297_15672)"/>
<path d="M44.2374 58.2499V57.9499C44.2374 56.9099 44.4441 56.0233 44.8574 55.2899C45.2841 54.5566 45.8441 53.9899 46.5374 53.5899C47.2308 53.1899 47.9908 52.9899 48.8174 52.9899C49.7774 52.9899 50.5108 53.1699 51.0174 53.5299C51.5374 53.8899 51.9174 54.2766 52.1574 54.6899H52.4774V53.2699H54.4774V65.1499C54.4774 65.7499 54.2974 66.2299 53.9374 66.5899C53.5908 66.9499 53.1108 67.1299 52.4974 67.1299H45.8574V65.3299H51.8574C52.2441 65.3299 52.4374 65.1299 52.4374 64.7299V61.5899H52.1174C51.9708 61.8299 51.7641 62.0766 51.4974 62.3299C51.2308 62.5833 50.8774 62.7899 50.4374 62.9499C50.0108 63.1099 49.4708 63.1899 48.8174 63.1899C47.9908 63.1899 47.2241 62.9966 46.5174 62.6099C45.8241 62.2099 45.2708 61.6433 44.8574 60.9099C44.4441 60.1633 44.2374 59.2766 44.2374 58.2499ZM49.3774 61.3899C50.2708 61.3899 51.0041 61.1099 51.5774 60.5499C52.1641 59.9766 52.4574 59.1899 52.4574 58.1899V58.0099C52.4574 56.9833 52.1708 56.1966 51.5974 55.6499C51.0241 55.0899 50.2841 54.8099 49.3774 54.8099C48.4974 54.8099 47.7641 55.0899 47.1774 55.6499C46.6041 56.1966 46.3174 56.9833 46.3174 58.0099V58.1899C46.3174 59.1899 46.6041 59.9766 47.1774 60.5499C47.7641 61.1099 48.4974 61.3899 49.3774 61.3899Z" fill="url(#paint4_linear_2297_15672)"/>
<path d="M39.6002 63.1299V53.2699H41.6602V63.1299H39.6002ZM40.6402 51.9299C40.2402 51.9299 39.9002 51.8033 39.6202 51.5499C39.3536 51.2833 39.2202 50.9433 39.2202 50.5299C39.2202 50.1166 39.3536 49.7833 39.6202 49.5299C39.9002 49.2633 40.2402 49.1299 40.6402 49.1299C41.0536 49.1299 41.3936 49.2633 41.6602 49.5299C41.9269 49.7833 42.0602 50.1166 42.0602 50.5299C42.0602 50.9433 41.9269 51.2833 41.6602 51.5499C41.3936 51.8033 41.0536 51.9299 40.6402 51.9299Z" fill="url(#paint5_linear_2297_15672)"/>
<path d="M33.1324 63.4099C31.8791 63.4099 30.8391 63.1299 30.0124 62.5699C29.1857 62.0099 28.6791 61.1633 28.4924 60.0299L30.4124 59.5699C30.5191 60.1166 30.6991 60.5499 30.9524 60.8699C31.2057 61.1899 31.5191 61.4166 31.8924 61.5499C32.2791 61.6833 32.6924 61.7499 33.1324 61.7499C33.7857 61.7499 34.2857 61.6233 34.6324 61.3699C34.9924 61.1166 35.1724 60.7899 35.1724 60.3899C35.1724 59.9899 35.0057 59.6966 34.6724 59.5099C34.3391 59.3233 33.8457 59.1699 33.1924 59.0499L32.5124 58.9299C31.8457 58.8099 31.2391 58.6366 30.6924 58.4099C30.1457 58.1833 29.7124 57.8699 29.3924 57.4699C29.0724 57.0699 28.9124 56.5566 28.9124 55.9299C28.9124 54.9966 29.2591 54.2766 29.9524 53.7699C30.6457 53.2499 31.5657 52.9899 32.7124 52.9899C33.8191 52.9899 34.7257 53.2433 35.4324 53.7499C36.1524 54.2433 36.6191 54.9166 36.8324 55.7699L34.9124 56.3099C34.7924 55.7099 34.5391 55.2899 34.1524 55.0499C33.7657 54.7966 33.2857 54.6699 32.7124 54.6699C32.1524 54.6699 31.7124 54.7766 31.3924 54.9899C31.0724 55.1899 30.9124 55.4766 30.9124 55.8499C30.9124 56.2499 31.0657 56.5433 31.3724 56.7299C31.6924 56.9166 32.1191 57.0566 32.6524 57.1499L33.3524 57.2699C34.0591 57.3899 34.7057 57.5566 35.2924 57.7699C35.8791 57.9833 36.3391 58.2899 36.6724 58.6899C37.0191 59.0899 37.1924 59.6233 37.1924 60.2899C37.1924 61.2766 36.8257 62.0433 36.0924 62.5899C35.3591 63.1366 34.3724 63.4099 33.1324 63.4099Z" fill="url(#paint6_linear_2297_15672)"/>
<path d="M21.9327 63.4099C20.9327 63.4099 20.0594 63.2033 19.3127 62.7899C18.5661 62.3633 17.9794 61.7699 17.5527 61.0099C17.1394 60.2366 16.9327 59.3433 16.9327 58.3299V58.0899C16.9327 57.0633 17.1394 56.1699 17.5527 55.4099C17.9661 54.6366 18.5394 54.0433 19.2727 53.6299C20.0194 53.2033 20.8794 52.9899 21.8527 52.9899C22.7994 52.9899 23.6261 53.2033 24.3327 53.6299C25.0527 54.0433 25.6127 54.6233 26.0127 55.3699C26.4127 56.1166 26.6127 56.9899 26.6127 57.9899V58.7699H19.0327C19.0594 59.6366 19.3461 60.3299 19.8927 60.8499C20.4527 61.3566 21.1461 61.6099 21.9727 61.6099C22.7461 61.6099 23.3261 61.4366 23.7127 61.0899C24.1127 60.7433 24.4194 60.3433 24.6327 59.8899L26.3327 60.7699C26.1461 61.1433 25.8727 61.5366 25.5127 61.9499C25.1661 62.3633 24.7061 62.7099 24.1327 62.9899C23.5594 63.2699 22.8261 63.4099 21.9327 63.4099ZM19.0527 57.1899H24.5127C24.4594 56.4433 24.1927 55.8633 23.7127 55.4499C23.2327 55.0233 22.6061 54.8099 21.8327 54.8099C21.0594 54.8099 20.4261 55.0233 19.9327 55.4499C19.4527 55.8633 19.1594 56.4433 19.0527 57.1899Z" fill="url(#paint7_linear_2297_15672)"/>
<path d="M3.53195 63.1299V61.2099H5.41195V51.0499H3.53195V49.1299H9.13195C10.9986 49.1299 12.4253 49.6033 13.4119 50.5499C14.4119 51.4966 14.9119 52.9233 14.9119 54.8299V57.4499C14.9119 59.3566 14.4119 60.7833 13.4119 61.7299C12.4253 62.6633 10.9986 63.1299 9.13195 63.1299H3.53195ZM7.59195 61.1699H9.15195C10.3653 61.1699 11.2653 60.8633 11.8519 60.2499C12.4386 59.6366 12.7319 58.7233 12.7319 57.5099V54.7499C12.7319 53.5233 12.4386 52.6099 11.8519 52.0099C11.2653 51.4099 10.3653 51.1099 9.15195 51.1099H7.59195V61.1699Z" fill="url(#paint8_linear_2297_15672)"/>
<defs>
<linearGradient id="paint0_linear_2297_15672" x1="3.53195" y1="58.1299" x2="110.583" y2="58.1299" gradientUnits="userSpaceOnUse">
<stop offset="0.586538" stop-color="white"/>
<stop offset="1" stop-color="#3D99FF"/>
</linearGradient>
<linearGradient id="paint1_linear_2297_15672" x1="3.53195" y1="58.1299" x2="110.583" y2="58.1299" gradientUnits="userSpaceOnUse">
<stop offset="0.586538" stop-color="white"/>
<stop offset="1" stop-color="#3D99FF"/>
</linearGradient>
<linearGradient id="paint2_linear_2297_15672" x1="3.53195" y1="58.1299" x2="110.583" y2="58.1299" gradientUnits="userSpaceOnUse">
<stop offset="0.586538" stop-color="white"/>
<stop offset="1" stop-color="#3D99FF"/>
</linearGradient>
<linearGradient id="paint3_linear_2297_15672" x1="3.53195" y1="58.1299" x2="110.583" y2="58.1299" gradientUnits="userSpaceOnUse">
<stop offset="0.586538" stop-color="white"/>
<stop offset="1" stop-color="#3D99FF"/>
</linearGradient>
<linearGradient id="paint4_linear_2297_15672" x1="3.53195" y1="58.1299" x2="110.583" y2="58.1299" gradientUnits="userSpaceOnUse">
<stop offset="0.586538" stop-color="white"/>
<stop offset="1" stop-color="#3D99FF"/>
</linearGradient>
<linearGradient id="paint5_linear_2297_15672" x1="3.53195" y1="58.1299" x2="110.583" y2="58.1299" gradientUnits="userSpaceOnUse">
<stop offset="0.586538" stop-color="white"/>
<stop offset="1" stop-color="#3D99FF"/>
</linearGradient>
<linearGradient id="paint6_linear_2297_15672" x1="3.53195" y1="58.1299" x2="110.583" y2="58.1299" gradientUnits="userSpaceOnUse">
<stop offset="0.586538" stop-color="white"/>
<stop offset="1" stop-color="#3D99FF"/>
</linearGradient>
<linearGradient id="paint7_linear_2297_15672" x1="3.53195" y1="58.1299" x2="110.583" y2="58.1299" gradientUnits="userSpaceOnUse">
<stop offset="0.586538" stop-color="white"/>
<stop offset="1" stop-color="#3D99FF"/>
</linearGradient>
<linearGradient id="paint8_linear_2297_15672" x1="3.53195" y1="58.1299" x2="110.583" y2="58.1299" gradientUnits="userSpaceOnUse">
<stop offset="0.586538" stop-color="white"/>
<stop offset="1" stop-color="#3D99FF"/>
</linearGradient>
</defs>
</svg>
